<svg width="339" height="104" viewBox="0 0 339 104" fill="none" xmlns="http://www.w3.org/2000/svg">
<rect x="0.382812" width="338.181" height="103.207" rx="12" fill="white"/>
<g style="mix-blend-mode:multiply">
<rect x="260.023" y="38.946" width="57.9113" height="25.982" rx="10.3856" fill="#ECFDF3"/>
<path d="M271.706 55.7235V48.1506M271.706 48.1506L267.919 51.9371M271.706 48.1506L275.492 51.9371" stroke="#12B76A" stroke-width="1.62275" stroke-linecap="round" stroke-linejoin="round"/>
<path d="M286.923 46.1073V57.437H285.208V47.8222H285.142L282.431 49.5925V47.955L285.258 46.1073H286.923ZM289.988 57.437V56.1978L293.822 52.2258C294.231 51.7943 294.568 51.4162 294.834 51.0917C295.103 50.7634 295.304 50.4518 295.437 50.1568C295.57 49.8617 295.636 49.5482 295.636 49.2163C295.636 48.8401 295.548 48.5156 295.371 48.2427C295.194 47.966 294.952 47.754 294.646 47.6065C294.34 47.4553 293.995 47.3796 293.611 47.3796C293.206 47.3796 292.852 47.4626 292.549 47.6286C292.247 47.7946 292.014 48.0287 291.852 48.3312C291.69 48.6336 291.609 48.9876 291.609 49.3933H289.977C289.977 48.7037 290.135 48.1007 290.453 47.5843C290.77 47.068 291.205 46.6678 291.758 46.3839C292.311 46.0962 292.94 45.9524 293.645 45.9524C294.356 45.9524 294.983 46.0944 295.526 46.3783C296.071 46.6586 296.497 47.0422 296.803 47.529C297.11 48.0122 297.263 48.558 297.263 49.1665C297.263 49.587 297.183 49.9982 297.025 50.4002C296.87 50.8022 296.599 51.2503 296.212 51.7445C295.824 52.235 295.286 52.8306 294.596 53.5313L292.345 55.888V55.971H297.445V57.437H289.988ZM305.456 55.3127V54.7152C305.456 54.2874 305.544 53.8965 305.721 53.5424C305.902 53.1847 306.164 52.8988 306.507 52.6849C306.853 52.4673 307.272 52.3585 307.763 52.3585C308.264 52.3585 308.685 52.4655 309.024 52.6794C309.363 52.8933 309.619 53.1791 309.793 53.5369C309.97 53.8946 310.058 54.2874 310.058 54.7152V55.3127C310.058 55.7405 309.97 56.1333 309.793 56.491C309.616 56.8451 309.356 57.1309 309.013 57.3485C308.673 57.5624 308.257 57.6694 307.763 57.6694C307.265 57.6694 306.844 57.5624 306.501 57.3485C306.158 57.1309 305.898 56.8451 305.721 56.491C305.544 56.1333 305.456 55.7405 305.456 55.3127ZM306.745 54.7152V55.3127C306.745 55.6299 306.82 55.9175 306.971 56.1757C307.123 56.4339 307.386 56.5629 307.763 56.5629C308.135 56.5629 308.395 56.4339 308.543 56.1757C308.69 55.9175 308.764 55.6299 308.764 55.3127V54.7152C308.764 54.398 308.692 54.1104 308.548 53.8522C308.408 53.594 308.146 53.465 307.763 53.465C307.394 53.465 307.132 53.594 306.977 53.8522C306.822 54.1104 306.745 54.398 306.745 54.7152ZM299.758 48.8291V48.2316C299.758 47.8038 299.846 47.411 300.023 47.0533C300.204 46.6955 300.466 46.4097 300.809 46.1958C301.155 45.9819 301.574 45.8749 302.064 45.8749C302.566 45.8749 302.986 45.9819 303.326 46.1958C303.665 46.4097 303.921 46.6955 304.095 47.0533C304.268 47.411 304.355 47.8038 304.355 48.2316V48.8291C304.355 49.2569 304.266 49.6497 304.089 50.0074C303.916 50.3615 303.658 50.6473 303.315 50.8649C302.975 51.0788 302.559 51.1857 302.064 51.1857C301.563 51.1857 301.141 51.0788 300.798 50.8649C300.458 50.6473 300.2 50.3615 300.023 50.0074C299.846 49.6497 299.758 49.2569 299.758 48.8291ZM301.052 48.2316V48.8291C301.052 49.1462 301.126 49.4339 301.273 49.6921C301.425 49.9502 301.688 50.0793 302.064 50.0793C302.433 50.0793 302.691 49.9502 302.839 49.6921C302.99 49.4339 303.066 49.1462 303.066 48.8291V48.2316C303.066 47.9144 302.994 47.6267 302.85 47.3686C302.706 47.1104 302.444 46.9813 302.064 46.9813C301.696 46.9813 301.434 47.1104 301.279 47.3686C301.128 47.6267 301.052 47.9144 301.052 48.2316ZM300.283 57.437L308.072 46.1073H309.395L301.605 57.437H300.283Z" fill="#027A48"/>
</g>
<path d="M29.895 27.2802H28.7517C28.6841 26.9514 28.5658 26.6625 28.3967 26.4135C28.2308 26.1646 28.0279 25.9556 27.7882 25.7866C27.5516 25.6145 27.2888 25.4854 26.9999 25.3993C26.711 25.3133 26.4098 25.2702 26.0963 25.2702C25.5247 25.2702 25.0068 25.4147 24.5427 25.7036C24.0817 25.9925 23.7144 26.4182 23.4409 26.9806C23.1704 27.543 23.0352 28.233 23.0352 29.0505C23.0352 29.868 23.1704 30.558 23.4409 31.1204C23.7144 31.6829 24.0817 32.1085 24.5427 32.3974C25.0068 32.6863 25.5247 32.8308 26.0963 32.8308C26.4098 32.8308 26.711 32.7878 26.9999 32.7017C27.2888 32.6156 27.5516 32.4881 27.7882 32.3191C28.0279 32.147 28.2308 31.9364 28.3967 31.6875C28.5658 31.4355 28.6841 31.1466 28.7517 30.8208H29.895C29.809 31.3033 29.6522 31.7351 29.4248 32.1162C29.1974 32.4973 28.9146 32.8216 28.5765 33.0889C28.2385 33.3533 27.8589 33.5546 27.4378 33.6929C27.0199 33.8312 26.5727 33.9003 26.0963 33.9003C25.2911 33.9003 24.575 33.7036 23.948 33.3102C23.321 32.9168 22.8278 32.3575 22.4682 31.6322C22.1086 30.9068 21.9288 30.0463 21.9288 29.0505C21.9288 28.0547 22.1086 27.1942 22.4682 26.4689C22.8278 25.7435 23.321 25.1842 23.948 24.7908C24.575 24.3974 25.2911 24.2007 26.0963 24.2007C26.5727 24.2007 27.0199 24.2699 27.4378 24.4082C27.8589 24.5465 28.2385 24.7493 28.5765 25.0167C28.9146 25.281 29.1974 25.6037 29.4248 25.9848C29.6522 26.3628 29.809 26.7946 29.895 27.2802ZM33.6788 33.9372C33.23 33.9372 32.8228 33.8527 32.4571 33.6836C32.0913 33.5115 31.8009 33.2641 31.5858 32.9414C31.3706 32.6156 31.2631 32.2223 31.2631 31.7612C31.2631 31.3556 31.343 31.0267 31.5028 30.7747C31.6626 30.5196 31.8762 30.3198 32.1436 30.1754C32.411 30.0309 32.706 29.9234 33.0287 29.8527C33.3545 29.7789 33.6818 29.7205 34.0107 29.6775C34.441 29.6222 34.7898 29.5807 35.0572 29.553C35.3276 29.5223 35.5243 29.4716 35.6473 29.4009C35.7733 29.3302 35.8363 29.2073 35.8363 29.0321V28.9952C35.8363 28.5403 35.7118 28.1869 35.4629 27.9349C35.217 27.6829 34.8436 27.5568 34.3426 27.5568C33.8232 27.5568 33.416 27.6706 33.1209 27.898C32.8259 28.1254 32.6184 28.3682 32.4986 28.6264L31.4659 28.2576C31.6503 27.8273 31.8962 27.4923 32.2035 27.2526C32.5139 27.0098 32.852 26.8407 33.2177 26.7455C33.5865 26.6471 33.9492 26.5979 34.3057 26.5979C34.5332 26.5979 34.7944 26.6256 35.0894 26.6809C35.3876 26.7332 35.6749 26.8423 35.9515 27.0082C36.2312 27.1742 36.4632 27.4247 36.6476 27.7597C36.8321 28.0947 36.9243 28.5434 36.9243 29.1058V33.7712H35.8363V32.8123H35.781C35.7072 32.966 35.5843 33.1304 35.4121 33.3056C35.24 33.4808 35.0111 33.6299 34.7252 33.7528C34.4394 33.8757 34.0906 33.9372 33.6788 33.9372ZM33.8447 32.9599C34.275 32.9599 34.6376 32.8753 34.9327 32.7063C35.2308 32.5373 35.4552 32.3191 35.6058 32.0517C35.7594 31.7843 35.8363 31.5031 35.8363 31.208V30.2123C35.7902 30.2676 35.6887 30.3183 35.532 30.3644C35.3783 30.4074 35.2001 30.4458 34.9972 30.4796C34.7975 30.5104 34.6023 30.538 34.4118 30.5626C34.2243 30.5841 34.0721 30.6026 33.9554 30.6179C33.6726 30.6548 33.4083 30.7148 33.1624 30.7977C32.9196 30.8776 32.7229 30.999 32.5723 31.1619C32.4248 31.3217 32.351 31.54 32.351 31.8166C32.351 32.1946 32.4909 32.4804 32.7706 32.674C33.0533 32.8646 33.4114 32.9599 33.8447 32.9599ZM38.91 33.7712V26.6901H39.9611V27.7597H40.0349C40.164 27.4093 40.3976 27.125 40.7356 26.9068C41.0737 26.6886 41.4548 26.5795 41.8789 26.5795C41.9589 26.5795 42.0587 26.581 42.1786 26.5841C42.2985 26.5872 42.3891 26.5918 42.4506 26.5979V27.7044C42.4137 27.6951 42.3292 27.6813 42.197 27.6629C42.068 27.6414 41.9312 27.6306 41.7867 27.6306C41.4425 27.6306 41.1352 27.7028 40.8647 27.8473C40.5973 27.9887 40.3853 28.1854 40.2285 28.4374C40.0749 28.6863 39.998 28.9706 39.998 29.2902V33.7712H38.91ZM46.1986 33.9188C45.6085 33.9188 45.0876 33.7697 44.6358 33.4716C44.184 33.1704 43.8305 32.7463 43.5755 32.1992C43.3204 31.6491 43.1928 30.999 43.1928 30.2491C43.1928 29.5054 43.3204 28.86 43.5755 28.3129C43.8305 27.7658 44.1855 27.3432 44.6404 27.0451C45.0952 26.747 45.6208 26.5979 46.217 26.5979C46.678 26.5979 47.0422 26.6748 47.3096 26.8284C47.5801 26.979 47.786 27.1512 47.9274 27.3448C48.0718 27.5353 48.184 27.6921 48.2639 27.815H48.3561V24.3298H49.4441V33.7712H48.393V32.6833H48.2639C48.184 32.8123 48.0703 32.9752 47.9228 33.1719C47.7752 33.3656 47.5647 33.5392 47.2912 33.6929C47.0177 33.8435 46.6535 33.9188 46.1986 33.9188ZM46.3461 32.9414C46.7825 32.9414 47.1513 32.8277 47.4525 32.6003C47.7537 32.3698 47.9827 32.0517 48.1394 31.646C48.2962 31.2372 48.3746 30.7655 48.3746 30.2307C48.3746 29.7021 48.2977 29.2395 48.1441 28.8431C47.9904 28.4435 47.763 28.1331 47.4618 27.9118C47.1606 27.6875 46.7887 27.5753 46.3461 27.5753C45.8851 27.5753 45.5009 27.6936 45.1936 27.9303C44.8893 28.1638 44.6604 28.4819 44.5067 28.8845C44.3561 29.2841 44.2808 29.7328 44.2808 30.2307C44.2808 30.7347 44.3576 31.1927 44.5113 31.6045C44.668 32.0133 44.8985 32.339 45.2028 32.5818C45.5102 32.8216 45.8913 32.9414 46.3461 32.9414ZM55.3865 33.7712V24.3298H58.6873C59.345 24.3298 59.8875 24.4435 60.3147 24.6709C60.7419 24.8953 61.06 25.198 61.269 25.5791C61.478 25.9571 61.5825 26.3767 61.5825 26.8377C61.5825 27.2434 61.5102 27.5784 61.3658 27.8427C61.2244 28.107 61.0369 28.316 60.8034 28.4696C60.5728 28.6233 60.3224 28.737 60.0519 28.8108V28.903C60.3408 28.9214 60.6312 29.0229 60.9232 29.2073C61.2152 29.3917 61.4595 29.656 61.6562 30.0002C61.8529 30.3444 61.9513 30.7655 61.9513 31.2634C61.9513 31.7367 61.8437 32.1623 61.6286 32.5403C61.4134 32.9184 61.0738 33.218 60.6097 33.4393C60.1456 33.6606 59.5417 33.7712 58.798 33.7712H55.3865ZM56.5298 32.757H58.798C59.5448 32.757 60.075 32.6126 60.3884 32.3237C60.705 32.0317 60.8633 31.6783 60.8633 31.2634C60.8633 30.9437 60.7818 30.6487 60.6189 30.3782C60.4561 30.1047 60.224 29.8865 59.9228 29.7236C59.6216 29.5576 59.2651 29.4746 58.8533 29.4746H56.5298V32.757ZM56.5298 28.4789H58.6504C58.9947 28.4789 59.3051 28.4112 59.5817 28.276C59.8614 28.1408 60.0826 27.9502 60.2455 27.7044C60.4115 27.4585 60.4945 27.1696 60.4945 26.8377C60.4945 26.4228 60.35 26.0709 60.0611 25.782C59.7722 25.49 59.3143 25.344 58.6873 25.344H56.5298V28.4789ZM65.7661 33.9372C65.3174 33.9372 64.9102 33.8527 64.5444 33.6836C64.1787 33.5115 63.8883 33.2641 63.6731 32.9414C63.458 32.6156 63.3504 32.2223 63.3504 31.7612C63.3504 31.3556 63.4303 31.0267 63.5902 30.7747C63.75 30.5196 63.9636 30.3198 64.231 30.1754C64.4983 30.0309 64.7934 29.9234 65.1161 29.8527C65.4419 29.7789 65.7692 29.7205 66.098 29.6775C66.5283 29.6222 66.8771 29.5807 67.1445 29.553C67.415 29.5223 67.6117 29.4716 67.7346 29.4009C67.8606 29.3302 67.9236 29.2073 67.9236 29.0321V28.9952C67.9236 28.5403 67.7992 28.1869 67.5502 27.9349C67.3043 27.6829 66.9309 27.5568 66.43 27.5568C65.9106 27.5568 65.5033 27.6706 65.2083 27.898C64.9132 28.1254 64.7058 28.3682 64.5859 28.6264L63.5533 28.2576C63.7377 27.8273 63.9835 27.4923 64.2909 27.2526C64.6013 27.0098 64.9394 26.8407 65.3051 26.7455C65.6739 26.6471 66.0366 26.5979 66.3931 26.5979C66.6205 26.5979 66.8818 26.6256 67.1768 26.6809C67.4749 26.7332 67.7623 26.8423 68.0389 27.0082C68.3186 27.1742 68.5506 27.4247 68.735 27.7597C68.9194 28.0947 69.0116 28.5434 69.0116 29.1058V33.7712H67.9236V32.8123H67.8683C67.7945 32.966 67.6716 33.1304 67.4995 33.3056C67.3274 33.4808 67.0984 33.6299 66.8126 33.7528C66.5268 33.8757 66.1779 33.9372 65.7661 33.9372ZM65.9321 32.9599C66.3623 32.9599 66.725 32.8753 67.0201 32.7063C67.3182 32.5373 67.5425 32.3191 67.6931 32.0517C67.8468 31.7843 67.9236 31.5031 67.9236 31.208V30.2123C67.8775 30.2676 67.7761 30.3183 67.6194 30.3644C67.4657 30.4074 67.2874 30.4458 67.0846 30.4796C66.8848 30.5104 66.6897 30.538 66.4991 30.5626C66.3116 30.5841 66.1595 30.6026 66.0427 30.6179C65.76 30.6548 65.4957 30.7148 65.2498 30.7977C65.007 30.8776 64.8103 30.999 64.6597 31.1619C64.5122 31.3217 64.4384 31.54 64.4384 31.8166C64.4384 32.1946 64.5782 32.4804 64.8579 32.674C65.1407 32.8646 65.4987 32.9599 65.9321 32.9599ZM72.0854 24.3298V33.7712H70.9974V24.3298H72.0854ZM76.1619 33.9372C75.7131 33.9372 75.3059 33.8527 74.9402 33.6836C74.5744 33.5115 74.284 33.2641 74.0689 32.9414C73.8537 32.6156 73.7462 32.2223 73.7462 31.7612C73.7462 31.3556 73.8261 31.0267 73.9859 30.7747C74.1457 30.5196 74.3593 30.3198 74.6267 30.1754C74.8941 30.0309 75.1891 29.9234 75.5118 29.8527C75.8376 29.7789 76.1649 29.7205 76.4938 29.6775C76.9241 29.6222 77.2729 29.5807 77.5403 29.553C77.8107 29.5223 78.0074 29.4716 78.1304 29.4009C78.2564 29.3302 78.3194 29.2073 78.3194 29.0321V28.9952C78.3194 28.5403 78.1949 28.1869 77.946 27.9349C77.7001 27.6829 77.3267 27.5568 76.8257 27.5568C76.3063 27.5568 75.8991 27.6706 75.604 27.898C75.309 28.1254 75.1015 28.3682 74.9817 28.6264L73.949 28.2576C74.1334 27.8273 74.3793 27.4923 74.6866 27.2526C74.997 27.0098 75.3351 26.8407 75.7008 26.7455C76.0697 26.6471 76.4323 26.5979 76.7888 26.5979C77.0163 26.5979 77.2775 26.6256 77.5725 26.6809C77.8707 26.7332 78.158 26.8423 78.4346 27.0082C78.7143 27.1742 78.9463 27.4247 79.1308 27.7597C79.3152 28.0947 79.4074 28.5434 79.4074 29.1058V33.7712H78.3194V32.8123H78.2641C78.1903 32.966 78.0674 33.1304 77.8952 33.3056C77.7231 33.4808 77.4942 33.6299 77.2083 33.7528C76.9225 33.8757 76.5737 33.9372 76.1619 33.9372ZM76.3278 32.9599C76.7581 32.9599 77.1208 32.8753 77.4158 32.7063C77.7139 32.5373 77.9383 32.3191 78.0889 32.0517C78.2425 31.7843 78.3194 31.5031 78.3194 31.208V30.2123C78.2733 30.2676 78.1719 30.3183 78.0151 30.3644C77.8614 30.4074 77.6832 30.4458 77.4803 30.4796C77.2806 30.5104 77.0854 30.538 76.8949 30.5626C76.7074 30.5841 76.5552 30.6026 76.4385 30.6179C76.1557 30.6548 75.8914 30.7148 75.6455 30.7977C75.4027 30.8776 75.206 30.999 75.0554 31.1619C74.9079 31.3217 74.8342 31.54 74.8342 31.8166C74.8342 32.1946 74.974 32.4804 75.2537 32.674C75.5364 32.8646 75.8945 32.9599 76.3278 32.9599ZM82.4811 29.5115V33.7712H81.3932V26.6901H82.4443V27.7966H82.5365C82.7024 27.437 82.9544 27.1481 83.2925 26.9299C83.6306 26.7086 84.067 26.5979 84.6018 26.5979C85.0812 26.5979 85.5007 26.6963 85.8603 26.893C86.2199 27.0866 86.4996 27.3817 86.6994 27.7781C86.8991 28.1715 86.999 28.6694 86.999 29.2718V33.7712H85.911V29.3456C85.911 28.7893 85.7666 28.3559 85.4777 28.0455C85.1888 27.732 84.7923 27.5753 84.2883 27.5753C83.941 27.5753 83.6306 27.6506 83.357 27.8012C83.0866 27.9518 82.873 28.1715 82.7162 28.4604C82.5595 28.7493 82.4811 29.0997 82.4811 29.5115ZM91.8638 33.9188C91.2 33.9188 90.6283 33.762 90.1489 33.4485C89.6694 33.135 89.3006 32.7032 89.0424 32.1531C88.7843 31.603 88.6552 30.9745 88.6552 30.2676C88.6552 29.5484 88.7873 28.9137 89.0517 28.3636C89.319 27.8104 89.6909 27.3786 90.1673 27.0682C90.6468 26.7547 91.2061 26.5979 91.8454 26.5979C92.3433 26.5979 92.792 26.6901 93.1915 26.8746C93.5911 27.059 93.9184 27.3171 94.1735 27.649C94.4286 27.981 94.5868 28.3682 94.6483 28.8108H93.5603C93.4773 28.4881 93.2929 28.2023 93.0071 27.9533C92.7244 27.7013 92.3433 27.5753 91.8638 27.5753C91.4397 27.5753 91.0678 27.6859 90.7482 27.9072C90.4316 28.1254 90.1842 28.4343 90.0059 28.8338C89.8308 29.2303 89.7432 29.6959 89.7432 30.2307C89.7432 30.7778 89.8292 31.2541 90.0013 31.6598C90.1765 32.0655 90.4224 32.3805 90.739 32.6049C91.0586 32.8292 91.4335 32.9414 91.8638 32.9414C92.1466 32.9414 92.4032 32.8923 92.6337 32.7939C92.8642 32.6956 93.0594 32.5542 93.2192 32.3698C93.379 32.1854 93.4927 31.9641 93.5603 31.7059H94.6483C94.5868 32.1239 94.4347 32.5004 94.1919 32.8354C93.9522 33.1673 93.6341 33.4316 93.2376 33.6283C92.8442 33.822 92.3863 33.9188 91.8638 33.9188ZM99.2077 33.9188C98.5254 33.9188 97.9368 33.7682 97.442 33.467C96.9503 33.1627 96.5707 32.7386 96.3033 32.1946C96.039 31.6475 95.9069 31.0113 95.9069 30.286C95.9069 29.5607 96.039 28.9214 96.3033 28.3682C96.5707 27.8119 96.9426 27.3786 97.419 27.0682C97.8984 26.7547 98.4578 26.5979 99.097 26.5979C99.4658 26.5979 99.83 26.6594 100.19 26.7823C100.549 26.9053 100.877 27.1051 101.172 27.3817C101.467 27.6552 101.702 28.0179 101.877 28.4696C102.052 28.9214 102.14 29.4777 102.14 30.1385V30.5995H96.6814V29.659H101.033C101.033 29.2595 100.953 28.903 100.794 28.5895C100.637 28.276 100.412 28.0286 100.12 27.8473C99.8316 27.6659 99.4904 27.5753 99.097 27.5753C98.6637 27.5753 98.2887 27.6829 97.9722 27.898C97.6587 28.1101 97.4174 28.3867 97.2484 28.7278C97.0794 29.069 96.9948 29.4347 96.9948 29.825V30.452C96.9948 30.9867 97.087 31.4401 97.2714 31.812C97.4589 32.1808 97.7186 32.462 98.0505 32.6556C98.3825 32.8461 98.7682 32.9414 99.2077 32.9414C99.4935 32.9414 99.7517 32.9015 99.9822 32.8216C100.216 32.7386 100.417 32.6156 100.586 32.4528C100.755 32.2868 100.886 32.0809 100.978 31.835L102.029 32.13C101.918 32.4866 101.732 32.8 101.471 33.0705C101.21 33.3379 100.887 33.5469 100.503 33.6975C100.119 33.845 99.6871 33.9188 99.2077 33.9188Z" fill="#777777"/>
<path d="M23.273 74.2622V52.4524H27.261L37.5116 67.8127V52.4524H41.4997V74.2622H37.5116L27.261 58.9331V74.2622H23.273ZM52.8627 74.6361C51.4295 74.6361 50.1313 74.3868 48.9681 73.8883C47.8049 73.369 46.8702 72.5797 46.164 71.5204C45.4577 70.4611 45.0839 69.1317 45.0423 67.5323H48.9681C48.9889 68.5917 49.3316 69.4848 49.9963 70.2118C50.6817 70.918 51.6372 71.2712 52.8627 71.2712C54.0259 71.2712 54.919 70.9492 55.5422 70.3053C56.1653 69.6614 56.4769 68.8513 56.4769 67.8751C56.4769 66.7326 56.0614 65.8706 55.2306 65.289C54.4205 64.6867 53.3716 64.3855 52.0838 64.3855H50.4636V61.114H52.1149C53.1742 61.114 54.057 60.8648 54.7632 60.3663C55.4695 59.8678 55.8226 59.1304 55.8226 58.1541C55.8226 57.3441 55.5526 56.7001 55.0125 56.2224C54.4932 55.7239 53.7662 55.4746 52.8315 55.4746C51.8137 55.4746 51.014 55.7758 50.4324 56.3782C49.8716 56.9806 49.5601 57.7179 49.4977 58.5903H45.6031C45.6862 56.5755 46.3821 54.9865 47.6907 53.8233C49.02 52.6602 50.7336 52.0786 52.8315 52.0786C54.3271 52.0786 55.5837 52.3486 56.6015 52.8886C57.6401 53.4079 58.419 54.1038 58.9383 54.9761C59.4783 55.8485 59.7483 56.8144 59.7483 57.8737C59.7483 59.0992 59.4056 60.1378 58.7202 60.9894C58.0555 61.8203 57.2246 62.3811 56.2276 62.6719C57.4531 62.9211 58.4501 63.5235 59.2187 64.479C59.9872 65.4137 60.3715 66.5976 60.3715 68.0308C60.3715 69.2356 60.0807 70.3364 59.4991 71.3335C58.9175 72.3305 58.0659 73.1302 56.9442 73.7325C55.8433 74.3349 54.4828 74.6361 52.8627 74.6361ZM63.7583 74.2622V71.3646C65.0877 70.2637 66.3755 69.1733 67.6218 68.0932C68.8888 67.0131 70.0105 65.9433 70.9867 64.884C71.9837 63.8247 72.773 62.7965 73.3546 61.7995C73.957 60.7817 74.2582 59.7951 74.2582 58.8396C74.2582 57.9464 74.0089 57.1571 73.5104 56.4717C73.0327 55.7862 72.233 55.4435 71.1113 55.4435C69.9689 55.4435 69.1069 55.8174 68.5253 56.5651C67.9437 57.3129 67.6529 58.2164 67.6529 59.2758H63.7895C63.831 57.6764 64.1841 56.347 64.8488 55.2877C65.5135 54.2076 66.3963 53.4079 67.4971 52.8886C68.598 52.3486 69.8339 52.0786 71.2048 52.0786C73.4273 52.0786 75.1513 52.6913 76.3768 53.9168C77.6231 55.1215 78.2462 56.6898 78.2462 58.6215C78.2462 59.8262 77.9658 60.9998 77.405 62.1422C76.8649 63.2846 76.1483 64.3855 75.2552 65.4448C74.362 66.5042 73.3962 67.5012 72.3576 68.4359C71.319 69.3498 70.3116 70.2014 69.3354 70.9907H78.7759V74.2622H63.7583ZM80.4051 77.8764L82.181 70.1184H86.0444L83.0222 77.8764H80.4051ZM96.9944 74.6361C95.4988 74.6361 94.1487 74.3764 92.944 73.8572C91.7392 73.3171 90.7734 72.559 90.0464 71.5827C89.3402 70.6065 88.9871 69.4744 88.9871 68.1866C88.9871 66.8573 89.3298 65.6941 90.0152 64.6971C90.7215 63.7 91.6458 62.9834 92.7882 62.5472C91.7912 62.1111 91.0019 61.4879 90.4203 60.6778C89.8387 59.847 89.5479 58.9227 89.5479 57.9049C89.5479 56.8663 89.8283 55.9108 90.3891 55.0385C90.9499 54.1453 91.7808 53.4287 92.8817 52.8886C94.0033 52.3486 95.3742 52.0786 96.9944 52.0786C98.6145 52.0786 99.975 52.3486 101.076 52.8886C102.177 53.4287 103.008 54.1453 103.568 55.0385C104.129 55.9108 104.41 56.8663 104.41 57.9049C104.41 58.9019 104.108 59.8262 103.506 60.6778C102.925 61.5087 102.146 62.1318 101.169 62.5472C102.333 62.9834 103.257 63.7 103.942 64.6971C104.628 65.6941 104.971 66.8573 104.971 68.1866C104.971 69.4744 104.617 70.6065 103.911 71.5827C103.205 72.559 102.239 73.3171 101.014 73.8572C99.8089 74.3764 98.4691 74.6361 96.9944 74.6361ZM96.9944 61.3633C98.0745 61.3633 98.9261 61.0829 99.5492 60.5221C100.172 59.9612 100.484 59.2446 100.484 58.3722C100.484 57.4168 100.172 56.669 99.5492 56.1289C98.9469 55.5889 98.0952 55.3189 96.9944 55.3189C95.8727 55.3189 95.0107 55.5889 94.4083 56.1289C93.806 56.669 93.5048 57.4168 93.5048 58.3722C93.5048 59.2654 93.806 59.9924 94.4083 60.5532C95.0315 61.0933 95.8935 61.3633 96.9944 61.3633ZM96.9944 71.3023C98.3237 71.3023 99.3311 70.9804 100.017 70.3364C100.702 69.6718 101.045 68.8409 101.045 67.8439C101.045 66.743 100.681 65.881 99.9543 65.2579C99.248 64.6348 98.2614 64.3232 96.9944 64.3232C95.7273 64.3232 94.7199 64.6348 93.9721 65.2579C93.2452 65.881 92.8817 66.743 92.8817 67.8439C92.8817 68.8409 93.2244 69.6718 93.9098 70.3364C94.6161 70.9804 95.6442 71.3023 96.9944 71.3023ZM117.835 74.6361C115.821 74.6361 114.097 74.1687 112.663 73.234C111.23 72.2786 110.119 70.9596 109.33 69.2771C108.561 67.5739 108.177 65.6006 108.177 63.3573C108.177 61.1348 108.561 59.1719 109.33 57.4687C110.119 55.7654 111.23 54.4465 112.663 53.5118C114.097 52.5563 115.821 52.0786 117.835 52.0786C119.85 52.0786 121.574 52.5563 123.007 53.5118C124.441 54.4465 125.541 55.7654 126.31 57.4687C127.099 59.1719 127.494 61.1348 127.494 63.3573C127.494 65.6006 127.099 67.5739 126.31 69.2771C125.541 70.9596 124.441 72.2786 123.007 73.234C121.574 74.1687 119.85 74.6361 117.835 74.6361ZM117.835 71.0531C119.476 71.0531 120.816 70.3676 121.855 68.9967C122.893 67.6258 123.412 65.746 123.412 63.3573C123.412 60.9686 122.893 59.0888 121.855 57.7179C120.816 56.347 119.476 55.6616 117.835 55.6616C116.174 55.6616 114.824 56.347 113.785 57.7179C112.767 59.0888 112.258 60.9686 112.258 63.3573C112.258 65.746 112.767 67.6258 113.785 68.9967C114.824 70.3676 116.174 71.0531 117.835 71.0531ZM140.984 74.2622V70.2118H130.235V67.0338L140.454 52.4524H144.972V66.7534H147.838V70.2118H144.972V74.2622H140.984ZM134.503 66.7534H141.233V56.8455L134.503 66.7534ZM149.291 77.8764L151.067 70.1184H154.93L151.908 77.8764H149.291ZM167.126 74.6361C165.112 74.6361 163.388 74.1687 161.954 73.234C160.521 72.2786 159.41 70.9596 158.621 69.2771C157.852 67.5739 157.468 65.6006 157.468 63.3573C157.468 61.1348 157.852 59.1719 158.621 57.4687C159.41 55.7654 160.521 54.4465 161.954 53.5118C163.388 52.5563 165.112 52.0786 167.126 52.0786C169.141 52.0786 170.865 52.5563 172.298 53.5118C173.732 54.4465 174.833 55.7654 175.601 57.4687C176.39 59.1719 176.785 61.1348 176.785 63.3573C176.785 65.6006 176.39 67.5739 175.601 69.2771C174.833 70.9596 173.732 72.2786 172.298 73.234C170.865 74.1687 169.141 74.6361 167.126 74.6361ZM167.126 71.0531C168.767 71.0531 170.107 70.3676 171.146 68.9967C172.184 67.6258 172.703 65.746 172.703 63.3573C172.703 60.9686 172.184 59.0888 171.146 57.7179C170.107 56.347 168.767 55.6616 167.126 55.6616C165.465 55.6616 164.115 56.347 163.076 57.7179C162.058 59.0888 161.549 60.9686 161.549 63.3573C161.549 65.746 162.058 67.6258 163.076 68.9967C164.115 70.3676 165.465 71.0531 167.126 71.0531ZM189.247 74.6361C187.232 74.6361 185.508 74.1687 184.074 73.234C182.641 72.2786 181.53 70.9596 180.741 69.2771C179.972 67.5739 179.588 65.6006 179.588 63.3573C179.588 61.1348 179.972 59.1719 180.741 57.4687C181.53 55.7654 182.641 54.4465 184.074 53.5118C185.508 52.5563 187.232 52.0786 189.247 52.0786C191.261 52.0786 192.985 52.5563 194.419 53.5118C195.852 54.4465 196.953 55.7654 197.721 57.4687C198.51 59.1719 198.905 61.1348 198.905 63.3573C198.905 65.6006 198.51 67.5739 197.721 69.2771C196.953 70.9596 195.852 72.2786 194.419 73.234C192.985 74.1687 191.261 74.6361 189.247 74.6361ZM189.247 71.0531C190.887 71.0531 192.227 70.3676 193.266 68.9967C194.304 67.6258 194.824 65.746 194.824 63.3573C194.824 60.9686 194.304 59.0888 193.266 57.7179C192.227 56.347 190.887 55.6616 189.247 55.6616C187.585 55.6616 186.235 56.347 185.196 57.7179C184.178 59.0888 183.669 60.9686 183.669 63.3573C183.669 65.746 184.178 67.6258 185.196 68.9967C186.235 70.3676 187.585 71.0531 189.247 71.0531ZM211.367 74.6361C209.352 74.6361 207.628 74.1687 206.195 73.234C204.761 72.2786 203.65 70.9596 202.861 69.2771C202.092 67.5739 201.708 65.6006 201.708 63.3573C201.708 61.1348 202.092 59.1719 202.861 57.4687C203.65 55.7654 204.761 54.4465 206.195 53.5118C207.628 52.5563 209.352 52.0786 211.367 52.0786C213.381 52.0786 215.105 52.5563 216.539 53.5118C217.972 54.4465 219.073 55.7654 219.841 57.4687C220.631 59.1719 221.025 61.1348 221.025 63.3573C221.025 65.6006 220.631 67.5739 219.841 69.2771C219.073 70.9596 217.972 72.2786 216.539 73.234C215.105 74.1687 213.381 74.6361 211.367 74.6361ZM211.367 71.0531C213.008 71.0531 214.347 70.3676 215.386 68.9967C216.424 67.6258 216.944 65.746 216.944 63.3573C216.944 60.9686 216.424 59.0888 215.386 57.7179C214.347 56.347 213.008 55.6616 211.367 55.6616C209.705 55.6616 208.355 56.347 207.316 57.7179C206.298 59.0888 205.79 60.9686 205.79 63.3573C205.79 65.746 206.298 67.6258 207.316 68.9967C208.355 70.3676 209.705 71.0531 211.367 71.0531Z" fill="#121212"/>
<path d="M21.1543 64.9775H43.6184V66.5353H21.1543V64.9775Z" fill="#121212"/>
</svg>
