<svg width="197" height="48" viewBox="0 0 197 48" fill="none" xmlns="http://www.w3.org/2000/svg">
<rect x="0.382812" width="196" height="48" rx="24" fill="white"/>
<path d="M20.4033 19.66C21.2913 19.66 22.0673 19.832 22.7313 20.176C23.4033 20.512 23.9193 21 24.2793 21.64C24.6473 22.272 24.8313 23.012 24.8313 23.86C24.8313 24.708 24.6473 25.444 24.2793 26.068C23.9193 26.692 23.4033 27.172 22.7313 27.508C22.0673 27.836 21.2913 28 20.4033 28H17.6793V19.66H20.4033ZM20.4033 26.884C21.3793 26.884 22.1273 26.62 22.6473 26.092C23.1673 25.564 23.4273 24.82 23.4273 23.86C23.4273 22.892 23.1673 22.136 22.6473 21.592C22.1273 21.048 21.3793 20.776 20.4033 20.776H19.0473V26.884H20.4033ZM29.0551 28.108C28.4311 28.108 27.8671 27.968 27.3631 27.688C26.8591 27.4 26.4631 27 26.1751 26.488C25.8871 25.968 25.7431 25.368 25.7431 24.688C25.7431 24.016 25.8911 23.42 26.1871 22.9C26.4831 22.38 26.8871 21.98 27.3991 21.7C27.9111 21.42 28.4831 21.28 29.1151 21.28C29.7471 21.28 30.3191 21.42 30.8311 21.7C31.3431 21.98 31.7471 22.38 32.0431 22.9C32.3391 23.42 32.4871 24.016 32.4871 24.688C32.4871 25.36 32.3351 25.956 32.0311 26.476C31.7271 26.996 31.3111 27.4 30.7831 27.688C30.2631 27.968 29.6871 28.108 29.0551 28.108ZM29.0551 26.92C29.4071 26.92 29.7351 26.836 30.0391 26.668C30.3511 26.5 30.6031 26.248 30.7951 25.912C30.9871 25.576 31.0831 25.168 31.0831 24.688C31.0831 24.208 30.9911 23.804 30.8071 23.476C30.6231 23.14 30.3791 22.888 30.0751 22.72C29.7711 22.552 29.4431 22.468 29.0911 22.468C28.7391 22.468 28.4111 22.552 28.1071 22.72C27.8111 22.888 27.5751 23.14 27.3991 23.476C27.2231 23.804 27.1351 24.208 27.1351 24.688C27.1351 25.4 27.3151 25.952 27.6751 26.344C28.0431 26.728 28.5031 26.92 29.0551 26.92ZM42.7195 21.388L40.6675 28H39.2275L37.8955 23.116L36.5635 28H35.1235L33.0595 21.388H34.4515L35.8315 26.704L37.2355 21.388H38.6635L40.0075 26.68L41.3755 21.388H42.7195ZM47.0778 21.28C47.5978 21.28 48.0618 21.388 48.4698 21.604C48.8858 21.82 49.2098 22.14 49.4418 22.564C49.6738 22.988 49.7898 23.5 49.7898 24.1V28H48.4338V24.304C48.4338 23.712 48.2858 23.26 47.9898 22.948C47.6938 22.628 47.2898 22.468 46.7778 22.468C46.2658 22.468 45.8578 22.628 45.5538 22.948C45.2578 23.26 45.1098 23.712 45.1098 24.304V28H43.7418V21.388H45.1098V22.144C45.3338 21.872 45.6178 21.66 45.9618 21.508C46.3138 21.356 46.6858 21.28 47.0778 21.28ZM52.9028 19.12V28H51.5348V19.12H52.9028ZM57.5668 28.108C56.9428 28.108 56.3788 27.968 55.8748 27.688C55.3708 27.4 54.9748 27 54.6868 26.488C54.3988 25.968 54.2548 25.368 54.2548 24.688C54.2548 24.016 54.4028 23.42 54.6988 22.9C54.9948 22.38 55.3988 21.98 55.9108 21.7C56.4228 21.42 56.9948 21.28 57.6268 21.28C58.2588 21.28 58.8308 21.42 59.3428 21.7C59.8548 21.98 60.2588 22.38 60.5548 22.9C60.8508 23.42 60.9988 24.016 60.9988 24.688C60.9988 25.36 60.8468 25.956 60.5428 26.476C60.2388 26.996 59.8228 27.4 59.2948 27.688C58.7748 27.968 58.1988 28.108 57.5668 28.108ZM57.5668 26.92C57.9188 26.92 58.2468 26.836 58.5508 26.668C58.8628 26.5 59.1148 26.248 59.3068 25.912C59.4988 25.576 59.5948 25.168 59.5948 24.688C59.5948 24.208 59.5028 23.804 59.3188 23.476C59.1348 23.14 58.8908 22.888 58.5868 22.72C58.2828 22.552 57.9548 22.468 57.6028 22.468C57.2508 22.468 56.9228 22.552 56.6188 22.72C56.3228 22.888 56.0868 23.14 55.9108 23.476C55.7348 23.804 55.6468 24.208 55.6468 24.688C55.6468 25.4 55.8268 25.952 56.1868 26.344C56.5548 26.728 57.0148 26.92 57.5668 26.92ZM61.8952 24.664C61.8952 24 62.0312 23.412 62.3032 22.9C62.5832 22.388 62.9592 21.992 63.4312 21.712C63.9112 21.424 64.4392 21.28 65.0152 21.28C65.5352 21.28 65.9872 21.384 66.3712 21.592C66.7632 21.792 67.0752 22.044 67.3072 22.348V21.388H68.6872V28H67.3072V27.016C67.0752 27.328 66.7592 27.588 66.3592 27.796C65.9592 28.004 65.5032 28.108 64.9912 28.108C64.4232 28.108 63.9032 27.964 63.4312 27.676C62.9592 27.38 62.5832 26.972 62.3032 26.452C62.0312 25.924 61.8952 25.328 61.8952 24.664ZM67.3072 24.688C67.3072 24.232 67.2112 23.836 67.0192 23.5C66.8352 23.164 66.5912 22.908 66.2872 22.732C65.9832 22.556 65.6552 22.468 65.3032 22.468C64.9512 22.468 64.6232 22.556 64.3192 22.732C64.0152 22.9 63.7672 23.152 63.5752 23.488C63.3912 23.816 63.2992 24.208 63.2992 24.664C63.2992 25.12 63.3912 25.52 63.5752 25.864C63.7672 26.208 64.0152 26.472 64.3192 26.656C64.6312 26.832 64.9592 26.92 65.3032 26.92C65.6552 26.92 65.9832 26.832 66.2872 26.656C66.5912 26.48 66.8352 26.224 67.0192 25.888C67.2112 25.544 67.3072 25.144 67.3072 24.688ZM70.028 24.664C70.028 24 70.164 23.412 70.436 22.9C70.716 22.388 71.092 21.992 71.564 21.712C72.044 21.424 72.576 21.28 73.16 21.28C73.592 21.28 74.016 21.376 74.432 21.568C74.856 21.752 75.192 22 75.44 22.312V19.12H76.82V28H75.44V27.004C75.216 27.324 74.904 27.588 74.504 27.796C74.112 28.004 73.66 28.108 73.148 28.108C72.572 28.108 72.044 27.964 71.564 27.676C71.092 27.38 70.716 26.972 70.436 26.452C70.164 25.924 70.028 25.328 70.028 24.664ZM75.44 24.688C75.44 24.232 75.344 23.836 75.152 23.5C74.968 23.164 74.724 22.908 74.42 22.732C74.116 22.556 73.788 22.468 73.436 22.468C73.084 22.468 72.756 22.556 72.452 22.732C72.148 22.9 71.9 23.152 71.708 23.488C71.524 23.816 71.432 24.208 71.432 24.664C71.432 25.12 71.524 25.52 71.708 25.864C71.9 26.208 72.148 26.472 72.452 26.656C72.764 26.832 73.092 26.92 73.436 26.92C73.788 26.92 74.116 26.832 74.42 26.656C74.724 26.48 74.968 26.224 75.152 25.888C75.344 25.544 75.44 25.144 75.44 24.688ZM83.33 22.504V26.164C83.33 26.412 83.386 26.592 83.498 26.704C83.618 26.808 83.818 26.86 84.098 26.86H84.938V28H83.858C83.242 28 82.77 27.856 82.442 27.568C82.114 27.28 81.95 26.812 81.95 26.164V22.504H81.17V21.388H81.95V19.744H83.33V21.388H84.938V22.504H83.33ZM89.6188 21.28C90.1228 21.28 90.5708 21.388 90.9628 21.604C91.3628 21.82 91.6748 22.14 91.8988 22.564C92.1308 22.988 92.2468 23.5 92.2468 24.1V28H90.8908V24.304C90.8908 23.712 90.7428 23.26 90.4468 22.948C90.1508 22.628 89.7468 22.468 89.2348 22.468C88.7228 22.468 88.3148 22.628 88.0108 22.948C87.7148 23.26 87.5668 23.712 87.5668 24.304V28H86.1988V19.12H87.5668V22.156C87.7988 21.876 88.0908 21.66 88.4428 21.508C88.8028 21.356 89.1948 21.28 89.6188 21.28ZM100.052 24.532C100.052 24.78 100.036 25.004 100.004 25.204H94.9518C94.9918 25.732 95.1878 26.156 95.5398 26.476C95.8918 26.796 96.3238 26.956 96.8358 26.956C97.5718 26.956 98.0918 26.648 98.3958 26.032H99.8718C99.6718 26.64 99.3078 27.14 98.7798 27.532C98.2598 27.916 97.6118 28.108 96.8358 28.108C96.2038 28.108 95.6358 27.968 95.1318 27.688C94.6358 27.4 94.2438 27 93.9558 26.488C93.6758 25.968 93.5358 25.368 93.5358 24.688C93.5358 24.008 93.6718 23.412 93.9438 22.9C94.2238 22.38 94.6118 21.98 95.1078 21.7C95.6118 21.42 96.1878 21.28 96.8358 21.28C97.4598 21.28 98.0158 21.416 98.5038 21.688C98.9918 21.96 99.3718 22.344 99.6438 22.84C99.9158 23.328 100.052 23.892 100.052 24.532ZM98.6238 24.1C98.6158 23.596 98.4358 23.192 98.0838 22.888C97.7318 22.584 97.2958 22.432 96.7758 22.432C96.3038 22.432 95.8998 22.584 95.5638 22.888C95.2278 23.184 95.0278 23.588 94.9638 24.1H98.6238ZM104.059 23.812C104.059 22.996 104.247 22.264 104.623 21.616C105.007 20.968 105.523 20.464 106.171 20.104C106.827 19.736 107.543 19.552 108.319 19.552C109.207 19.552 109.995 19.772 110.683 20.212C111.379 20.644 111.883 21.26 112.195 22.06H110.551C110.335 21.62 110.035 21.292 109.651 21.076C109.267 20.86 108.823 20.752 108.319 20.752C107.767 20.752 107.275 20.876 106.843 21.124C106.411 21.372 106.071 21.728 105.823 22.192C105.583 22.656 105.463 23.196 105.463 23.812C105.463 24.428 105.583 24.968 105.823 25.432C106.071 25.896 106.411 26.256 106.843 26.512C107.275 26.76 107.767 26.884 108.319 26.884C108.823 26.884 109.267 26.776 109.651 26.56C110.035 26.344 110.335 26.016 110.551 25.576H112.195C111.883 26.376 111.379 26.992 110.683 27.424C109.995 27.856 109.207 28.072 108.319 28.072C107.535 28.072 106.819 27.892 106.171 27.532C105.523 27.164 105.007 26.656 104.623 26.008C104.247 25.36 104.059 24.628 104.059 23.812ZM115.164 22.348C115.364 22.012 115.628 21.752 115.956 21.568C116.292 21.376 116.688 21.28 117.144 21.28V22.696H116.796C116.26 22.696 115.852 22.832 115.572 23.104C115.3 23.376 115.164 23.848 115.164 24.52V28H113.796V21.388H115.164V22.348ZM124.462 24.532C124.462 24.78 124.446 25.004 124.414 25.204H119.362C119.402 25.732 119.598 26.156 119.95 26.476C120.302 26.796 120.734 26.956 121.246 26.956C121.982 26.956 122.502 26.648 122.806 26.032H124.282C124.082 26.64 123.718 27.14 123.19 27.532C122.67 27.916 122.022 28.108 121.246 28.108C120.614 28.108 120.046 27.968 119.542 27.688C119.046 27.4 118.654 27 118.366 26.488C118.086 25.968 117.946 25.368 117.946 24.688C117.946 24.008 118.082 23.412 118.354 22.9C118.634 22.38 119.022 21.98 119.518 21.7C120.022 21.42 120.598 21.28 121.246 21.28C121.87 21.28 122.426 21.416 122.914 21.688C123.402 21.96 123.782 22.344 124.054 22.84C124.326 23.328 124.462 23.892 124.462 24.532ZM123.034 24.1C123.026 23.596 122.846 23.192 122.494 22.888C122.142 22.584 121.706 22.432 121.186 22.432C120.714 22.432 120.31 22.584 119.974 22.888C119.638 23.184 119.438 23.588 119.374 24.1H123.034ZM125.352 24.664C125.352 24 125.488 23.412 125.76 22.9C126.04 22.388 126.416 21.992 126.888 21.712C127.368 21.424 127.9 21.28 128.484 21.28C128.916 21.28 129.34 21.376 129.756 21.568C130.18 21.752 130.516 22 130.764 22.312V19.12H132.144V28H130.764V27.004C130.54 27.324 130.228 27.588 129.828 27.796C129.436 28.004 128.984 28.108 128.472 28.108C127.896 28.108 127.368 27.964 126.888 27.676C126.416 27.38 126.04 26.972 125.76 26.452C125.488 25.924 125.352 25.328 125.352 24.664ZM130.764 24.688C130.764 24.232 130.668 23.836 130.476 23.5C130.292 23.164 130.048 22.908 129.744 22.732C129.44 22.556 129.112 22.468 128.76 22.468C128.408 22.468 128.08 22.556 127.776 22.732C127.472 22.9 127.224 23.152 127.032 23.488C126.848 23.816 126.756 24.208 126.756 24.664C126.756 25.12 126.848 25.52 127.032 25.864C127.224 26.208 127.472 26.472 127.776 26.656C128.088 26.832 128.416 26.92 128.76 26.92C129.112 26.92 129.44 26.832 129.744 26.656C130.048 26.48 130.292 26.224 130.476 25.888C130.668 25.544 130.764 25.144 130.764 24.688ZM135.309 22.36C135.541 22.056 135.857 21.8 136.257 21.592C136.657 21.384 137.109 21.28 137.613 21.28C138.189 21.28 138.713 21.424 139.185 21.712C139.665 21.992 140.041 22.388 140.313 22.9C140.585 23.412 140.721 24 140.721 24.664C140.721 25.328 140.585 25.924 140.313 26.452C140.041 26.972 139.665 27.38 139.185 27.676C138.713 27.964 138.189 28.108 137.613 28.108C137.109 28.108 136.661 28.008 136.269 27.808C135.877 27.6 135.557 27.344 135.309 27.04V31.144H133.941V21.388H135.309V22.36ZM139.329 24.664C139.329 24.208 139.233 23.816 139.041 23.488C138.857 23.152 138.609 22.9 138.297 22.732C137.993 22.556 137.665 22.468 137.313 22.468C136.969 22.468 136.641 22.556 136.329 22.732C136.025 22.908 135.777 23.164 135.585 23.5C135.401 23.836 135.309 24.232 135.309 24.688C135.309 25.144 135.401 25.544 135.585 25.888C135.777 26.224 136.025 26.48 136.329 26.656C136.641 26.832 136.969 26.92 137.313 26.92C137.665 26.92 137.993 26.832 138.297 26.656C138.609 26.472 138.857 26.208 139.041 25.864C139.233 25.52 139.329 25.12 139.329 24.664ZM141.618 24.664C141.618 24 141.754 23.412 142.026 22.9C142.306 22.388 142.682 21.992 143.154 21.712C143.634 21.424 144.162 21.28 144.738 21.28C145.258 21.28 145.71 21.384 146.094 21.592C146.486 21.792 146.798 22.044 147.03 22.348V21.388H148.41V28H147.03V27.016C146.798 27.328 146.482 27.588 146.082 27.796C145.682 28.004 145.226 28.108 144.714 28.108C144.146 28.108 143.626 27.964 143.154 27.676C142.682 27.38 142.306 26.972 142.026 26.452C141.754 25.924 141.618 25.328 141.618 24.664ZM147.03 24.688C147.03 24.232 146.934 23.836 146.742 23.5C146.558 23.164 146.314 22.908 146.01 22.732C145.706 22.556 145.378 22.468 145.026 22.468C144.674 22.468 144.346 22.556 144.042 22.732C143.738 22.9 143.49 23.152 143.298 23.488C143.114 23.816 143.022 24.208 143.022 24.664C143.022 25.12 143.114 25.52 143.298 25.864C143.49 26.208 143.738 26.472 144.042 26.656C144.354 26.832 144.682 26.92 145.026 26.92C145.378 26.92 145.706 26.832 146.01 26.656C146.314 26.48 146.558 26.224 146.742 25.888C146.934 25.544 147.03 25.144 147.03 24.688ZM151.575 19.12V28H150.207V19.12H151.575ZM156.032 24.664C156.032 24 156.168 23.412 156.44 22.9C156.72 22.388 157.096 21.992 157.568 21.712C158.048 21.424 158.576 21.28 159.152 21.28C159.672 21.28 160.124 21.384 160.508 21.592C160.9 21.792 161.212 22.044 161.444 22.348V21.388H162.824V28H161.444V27.016C161.212 27.328 160.896 27.588 160.496 27.796C160.096 28.004 159.64 28.108 159.128 28.108C158.56 28.108 158.04 27.964 157.568 27.676C157.096 27.38 156.72 26.972 156.44 26.452C156.168 25.924 156.032 25.328 156.032 24.664ZM161.444 24.688C161.444 24.232 161.348 23.836 161.156 23.5C160.972 23.164 160.728 22.908 160.424 22.732C160.12 22.556 159.792 22.468 159.44 22.468C159.088 22.468 158.76 22.556 158.456 22.732C158.152 22.9 157.904 23.152 157.712 23.488C157.528 23.816 157.436 24.208 157.436 24.664C157.436 25.12 157.528 25.52 157.712 25.864C157.904 26.208 158.152 26.472 158.456 26.656C158.768 26.832 159.096 26.92 159.44 26.92C159.792 26.92 160.12 26.832 160.424 26.656C160.728 26.48 160.972 26.224 161.156 25.888C161.348 25.544 161.444 25.144 161.444 24.688ZM165.989 22.36C166.221 22.056 166.537 21.8 166.937 21.592C167.337 21.384 167.789 21.28 168.293 21.28C168.869 21.28 169.393 21.424 169.865 21.712C170.345 21.992 170.721 22.388 170.993 22.9C171.265 23.412 171.401 24 171.401 24.664C171.401 25.328 171.265 25.924 170.993 26.452C170.721 26.972 170.345 27.38 169.865 27.676C169.393 27.964 168.869 28.108 168.293 28.108C167.789 28.108 167.341 28.008 166.949 27.808C166.557 27.6 166.237 27.344 165.989 27.04V31.144H164.621V21.388H165.989V22.36ZM170.009 24.664C170.009 24.208 169.913 23.816 169.721 23.488C169.537 23.152 169.289 22.9 168.977 22.732C168.673 22.556 168.345 22.468 167.993 22.468C167.649 22.468 167.321 22.556 167.009 22.732C166.705 22.908 166.457 23.164 166.265 23.5C166.081 23.836 165.989 24.232 165.989 24.688C165.989 25.144 166.081 25.544 166.265 25.888C166.457 26.224 166.705 26.48 167.009 26.656C167.321 26.832 167.649 26.92 167.993 26.92C168.345 26.92 168.673 26.832 168.977 26.656C169.289 26.472 169.537 26.208 169.721 25.864C169.913 25.52 170.009 25.12 170.009 24.664ZM174.122 22.36C174.354 22.056 174.67 21.8 175.07 21.592C175.47 21.384 175.922 21.28 176.426 21.28C177.002 21.28 177.526 21.424 177.998 21.712C178.478 21.992 178.854 22.388 179.126 22.9C179.398 23.412 179.534 24 179.534 24.664C179.534 25.328 179.398 25.924 179.126 26.452C178.854 26.972 178.478 27.38 177.998 27.676C177.526 27.964 177.002 28.108 176.426 28.108C175.922 28.108 175.474 28.008 175.082 27.808C174.69 27.6 174.37 27.344 174.122 27.04V31.144H172.754V21.388H174.122V22.36ZM178.142 24.664C178.142 24.208 178.046 23.816 177.854 23.488C177.67 23.152 177.422 22.9 177.11 22.732C176.806 22.556 176.478 22.468 176.126 22.468C175.782 22.468 175.454 22.556 175.142 22.732C174.838 22.908 174.59 23.164 174.398 23.5C174.214 23.836 174.122 24.232 174.122 24.688C174.122 25.144 174.214 25.544 174.398 25.888C174.59 26.224 174.838 26.48 175.142 26.656C175.454 26.832 175.782 26.92 176.126 26.92C176.478 26.92 176.806 26.832 177.11 26.656C177.422 26.472 177.67 26.208 177.854 25.864C178.046 25.52 178.142 25.12 178.142 24.664Z" fill="black"/>
</svg>
