<svg width="339" height="104" viewBox="0 0 339 104" fill="none" xmlns="http://www.w3.org/2000/svg">
<rect x="0.382812" width="338.181" height="103.207" rx="12" fill="white"/>
<g style="mix-blend-mode:multiply">
<rect x="278.383" y="36" width="32" height="32" rx="6.4" fill="#45B36B"/>
<path d="M283.239 56.327C283.01 56.5617 283.015 56.9374 283.25 57.1659C283.485 57.3945 283.861 57.3895 284.089 57.1547L283.239 56.327ZM305.101 47.259L298.508 49.1203L303.417 53.8994L305.101 47.259ZM297.003 55.5766L296.578 55.1628L297.003 55.5766ZM284.089 57.1547L289.058 52.0513L288.208 51.2235L283.239 56.327L284.089 57.1547ZM290.475 52.0513L294.311 55.9905L295.161 55.1628L291.325 51.2235L290.475 52.0513ZM297.428 55.9905L301.801 51.4987L300.951 50.6709L296.578 55.1628L297.428 55.9905ZM294.311 55.9905C295.165 56.8676 296.574 56.8676 297.428 55.9905L296.578 55.1628C296.189 55.5614 295.549 55.5614 295.161 55.1628L294.311 55.9905ZM289.058 52.0513C289.446 51.6526 290.087 51.6526 290.475 52.0513L291.325 51.2235C290.471 50.3464 289.062 50.3464 288.208 51.2235L289.058 52.0513Z" fill="white"/>
</g>
<path d="M21.7813 25.344V24.3298H28.8624V25.344H25.8935V33.7712H24.7502V25.344H21.7813ZM32.3291 33.9188C31.6899 33.9188 31.129 33.7666 30.6465 33.4624C30.167 33.1581 29.7921 32.7324 29.5216 32.1854C29.2542 31.6383 29.1205 30.999 29.1205 30.2676C29.1205 29.53 29.2542 28.8861 29.5216 28.3359C29.7921 27.7858 30.167 27.3586 30.6465 27.0543C31.129 26.7501 31.6899 26.5979 32.3291 26.5979C32.9684 26.5979 33.5278 26.7501 34.0072 27.0543C34.4897 27.3586 34.8647 27.7858 35.1321 28.3359C35.4025 28.8861 35.5378 29.53 35.5378 30.2676C35.5378 30.999 35.4025 31.6383 35.1321 32.1854C34.8647 32.7324 34.4897 33.1581 34.0072 33.4624C33.5278 33.7666 32.9684 33.9188 32.3291 33.9188ZM32.3291 32.9414C32.8147 32.9414 33.2143 32.817 33.5278 32.568C33.8413 32.3191 34.0733 31.9917 34.2239 31.5861C34.3745 31.1804 34.4498 30.7409 34.4498 30.2676C34.4498 29.7943 34.3745 29.3532 34.2239 28.9445C34.0733 28.5357 33.8413 28.2053 33.5278 27.9533C33.2143 27.7013 32.8147 27.5753 32.3291 27.5753C31.8436 27.5753 31.444 27.7013 31.1305 27.9533C30.817 28.2053 30.585 28.5357 30.4344 28.9445C30.2838 29.3532 30.2085 29.7943 30.2085 30.2676C30.2085 30.7409 30.2838 31.1804 30.4344 31.5861C30.585 31.9917 30.817 32.3191 31.1305 32.568C31.444 32.817 31.8436 32.9414 32.3291 32.9414ZM40.2781 26.6901V27.6122H36.6085V26.6901H40.2781ZM37.678 24.9936H38.766V31.7428C38.766 32.0501 38.8105 32.2806 38.8997 32.4343C38.9919 32.5849 39.1087 32.6863 39.25 32.7386C39.3945 32.7878 39.5466 32.8123 39.7064 32.8123C39.8263 32.8123 39.9247 32.8062 40.0015 32.7939C40.0783 32.7785 40.1398 32.7662 40.1859 32.757L40.4072 33.7344C40.3334 33.762 40.2305 33.7897 40.0983 33.8173C39.9661 33.8481 39.7986 33.8634 39.5958 33.8634C39.2885 33.8634 38.9873 33.7974 38.6922 33.6652C38.4002 33.5331 38.1575 33.3317 37.9638 33.0613C37.7733 32.7908 37.678 32.4497 37.678 32.0378V24.9936ZM43.9984 33.9372C43.5497 33.9372 43.1425 33.8527 42.7768 33.6836C42.411 33.5115 42.1206 33.2641 41.9055 32.9414C41.6903 32.6156 41.5827 32.2223 41.5827 31.7612C41.5827 31.3556 41.6627 31.0267 41.8225 30.7747C41.9823 30.5196 42.1959 30.3198 42.4633 30.1754C42.7307 30.0309 43.0257 29.9234 43.3484 29.8527C43.6742 29.7789 44.0015 29.7205 44.3304 29.6775C44.7606 29.6222 45.1095 29.5807 45.3768 29.553C45.6473 29.5223 45.844 29.4716 45.9669 29.4009C46.0929 29.3302 46.156 29.2073 46.156 29.0321V28.9952C46.156 28.5403 46.0315 28.1869 45.7825 27.9349C45.5367 27.6829 45.1632 27.5568 44.6623 27.5568C44.1429 27.5568 43.7357 27.6706 43.4406 27.898C43.1456 28.1254 42.9381 28.3682 42.8182 28.6264L41.7856 28.2576C41.97 27.8273 42.2159 27.4923 42.5232 27.2526C42.8336 27.0098 43.1717 26.8407 43.5374 26.7455C43.9062 26.6471 44.2689 26.5979 44.6254 26.5979C44.8528 26.5979 45.1141 26.6256 45.4091 26.6809C45.7072 26.7332 45.9946 26.8423 46.2712 27.0082C46.5509 27.1742 46.7829 27.4247 46.9673 27.7597C47.1517 28.0947 47.2439 28.5434 47.2439 29.1058V33.7712H46.156V32.8123H46.1006C46.0269 32.966 45.9039 33.1304 45.7318 33.3056C45.5597 33.4808 45.3307 33.6299 45.0449 33.7528C44.7591 33.8757 44.4103 33.9372 43.9984 33.9372ZM44.1644 32.9599C44.5947 32.9599 44.9573 32.8753 45.2524 32.7063C45.5505 32.5373 45.7749 32.3191 45.9254 32.0517C46.0791 31.7843 46.156 31.5031 46.156 31.208V30.2123C46.1099 30.2676 46.0084 30.3183 45.8517 30.3644C45.698 30.4074 45.5198 30.4458 45.3169 30.4796C45.1171 30.5104 44.922 30.538 44.7314 30.5626C44.544 30.5841 44.3918 30.6026 44.275 30.6179C43.9923 30.6548 43.728 30.7148 43.4821 30.7977C43.2393 30.8776 43.0426 30.999 42.892 31.1619C42.7445 31.3217 42.6707 31.54 42.6707 31.8166C42.6707 32.1946 42.8106 32.4804 43.0902 32.674C43.373 32.8646 43.731 32.9599 44.1644 32.9599ZM50.3177 24.3298V33.7712H49.2297V24.3298H50.3177ZM56.1091 33.7712V24.3298H61.8072V25.344H57.2524V28.5342H61.5122V29.5484H57.2524V32.757H61.881V33.7712H56.1091ZM65.8041 33.9372C65.3554 33.9372 64.9482 33.8527 64.5825 33.6836C64.2167 33.5115 63.9263 33.2641 63.7112 32.9414C63.496 32.6156 63.3885 32.2223 63.3885 31.7612C63.3885 31.3556 63.4684 31.0267 63.6282 30.7747C63.788 30.5196 64.0016 30.3198 64.269 30.1754C64.5364 30.0309 64.8314 29.9234 65.1541 29.8527C65.4799 29.7789 65.8072 29.7205 66.1361 29.6775C66.5663 29.6222 66.9152 29.5807 67.1826 29.553C67.453 29.5223 67.6497 29.4716 67.7727 29.4009C67.8987 29.3302 67.9617 29.2073 67.9617 29.0321V28.9952C67.9617 28.5403 67.8372 28.1869 67.5882 27.9349C67.3424 27.6829 66.969 27.5568 66.468 27.5568C65.9486 27.5568 65.5414 27.6706 65.2463 27.898C64.9513 28.1254 64.7438 28.3682 64.624 28.6264L63.5913 28.2576C63.7757 27.8273 64.0216 27.4923 64.3289 27.2526C64.6393 27.0098 64.9774 26.8407 65.3431 26.7455C65.7119 26.6471 66.0746 26.5979 66.4311 26.5979C66.6585 26.5979 66.9198 26.6256 67.2148 26.6809C67.5129 26.7332 67.8003 26.8423 68.0769 27.0082C68.3566 27.1742 68.5886 27.4247 68.773 27.7597C68.9574 28.0947 69.0496 28.5434 69.0496 29.1058V33.7712H67.9617V32.8123H67.9063C67.8326 32.966 67.7096 33.1304 67.5375 33.3056C67.3654 33.4808 67.1365 33.6299 66.8506 33.7528C66.5648 33.8757 66.216 33.9372 65.8041 33.9372ZM65.9701 32.9599C66.4004 32.9599 66.763 32.8753 67.0581 32.7063C67.3562 32.5373 67.5806 32.3191 67.7312 32.0517C67.8848 31.7843 67.9617 31.5031 67.9617 31.208V30.2123C67.9156 30.2676 67.8141 30.3183 67.6574 30.3644C67.5037 30.4074 67.3255 30.4458 67.1226 30.4796C66.9229 30.5104 66.7277 30.538 66.5371 30.5626C66.3497 30.5841 66.1975 30.6026 66.0807 30.6179C65.798 30.6548 65.5337 30.7148 65.2878 30.7977C65.045 30.8776 64.8483 30.999 64.6977 31.1619C64.5502 31.3217 64.4764 31.54 64.4764 31.8166C64.4764 32.1946 64.6163 32.4804 64.896 32.674C65.1787 32.8646 65.5368 32.9599 65.9701 32.9599ZM71.0354 33.7712V26.6901H72.0865V27.7597H72.1603C72.2894 27.4093 72.523 27.125 72.861 26.9068C73.1991 26.6886 73.5802 26.5795 74.0043 26.5795C74.0842 26.5795 74.1841 26.581 74.304 26.5841C74.4239 26.5872 74.5145 26.5918 74.576 26.5979V27.7044C74.5391 27.6951 74.4546 27.6813 74.3224 27.6629C74.1934 27.6414 74.0566 27.6306 73.9121 27.6306C73.5679 27.6306 73.2606 27.7028 72.9901 27.8473C72.7227 27.9887 72.5107 28.1854 72.3539 28.4374C72.2003 28.6863 72.1234 28.9706 72.1234 29.2902V33.7712H71.0354ZM76.9536 29.5115V33.7712H75.8657V26.6901H76.9168V27.7966H77.009C77.1749 27.437 77.4269 27.1481 77.765 26.9299C78.1031 26.7086 78.5395 26.5979 79.0743 26.5979C79.5537 26.5979 79.9732 26.6963 80.3328 26.893C80.6924 27.0866 80.9721 27.3817 81.1719 27.7781C81.3716 28.1715 81.4715 28.6694 81.4715 29.2718V33.7712H80.3835V29.3456C80.3835 28.7893 80.2391 28.3559 79.9502 28.0455C79.6613 27.732 79.2648 27.5753 78.7608 27.5753C78.4135 27.5753 78.1031 27.6506 77.8296 27.8012C77.5591 27.9518 77.3455 28.1715 77.1888 28.4604C77.032 28.7493 76.9536 29.0997 76.9536 29.5115ZM83.4596 33.7712V26.6901H84.5476V33.7712H83.4596ZM84.0128 25.51C83.8008 25.51 83.6179 25.4377 83.4642 25.2933C83.3136 25.1488 83.2383 24.9752 83.2383 24.7724C83.2383 24.5695 83.3136 24.3959 83.4642 24.2514C83.6179 24.107 83.8008 24.0347 84.0128 24.0347C84.2249 24.0347 84.4062 24.107 84.5568 24.2514C84.7105 24.3959 84.7873 24.5695 84.7873 24.7724C84.7873 24.9752 84.7105 25.1488 84.5568 25.2933C84.4062 25.4377 84.2249 25.51 84.0128 25.51ZM87.6283 29.5115V33.7712H86.5403V26.6901H87.5914V27.7966H87.6836C87.8496 27.437 88.1016 27.1481 88.4397 26.9299C88.7777 26.7086 89.2142 26.5979 89.7489 26.5979C90.2284 26.5979 90.6479 26.6963 91.0075 26.893C91.3671 27.0866 91.6468 27.3817 91.8465 27.7781C92.0463 28.1715 92.1462 28.6694 92.1462 29.2718V33.7712H91.0582V29.3456C91.0582 28.7893 90.9137 28.3559 90.6248 28.0455C90.336 27.732 89.9395 27.5753 89.4354 27.5753C89.0882 27.5753 88.7777 27.6506 88.5042 27.8012C88.2338 27.9518 88.0201 28.1715 87.8634 28.4604C87.7067 28.7493 87.6283 29.0997 87.6283 29.5115ZM96.9925 36.5742C96.467 36.5742 96.0152 36.5066 95.6372 36.3713C95.2591 36.2392 94.9441 36.064 94.6921 35.8458C94.4432 35.6306 94.2449 35.4001 94.0974 35.1543L94.9641 34.5457C95.0624 34.6748 95.1869 34.8223 95.3375 34.9883C95.4881 35.1573 95.694 35.3033 95.9553 35.4263C96.2196 35.5523 96.5653 35.6153 96.9925 35.6153C97.5642 35.6153 98.036 35.477 98.4078 35.2004C98.7797 34.9238 98.9657 34.4904 98.9657 33.9003V32.462H98.8735C98.7935 32.5911 98.6798 32.7509 98.5323 32.9414C98.3879 33.1289 98.1789 33.2964 97.9053 33.4439C97.6349 33.5884 97.2691 33.6606 96.8081 33.6606C96.2365 33.6606 95.7232 33.5254 95.2684 33.2549C94.8166 32.9845 94.4585 32.5911 94.1942 32.0747C93.933 31.5584 93.8024 30.9314 93.8024 30.1938C93.8024 29.4685 93.9299 28.8369 94.185 28.2991C94.4401 27.7581 94.7951 27.3402 95.2499 27.0451C95.7048 26.747 96.2303 26.5979 96.8266 26.5979C97.2876 26.5979 97.6533 26.6748 97.9238 26.8284C98.1973 26.979 98.4063 27.1512 98.5507 27.3448C98.6983 27.5353 98.812 27.6921 98.8919 27.815H99.0025V26.6901H100.054V33.9741C100.054 34.5826 99.9153 35.0774 99.6387 35.4585C99.3652 35.8427 98.9964 36.1239 98.5323 36.3022C98.0713 36.4835 97.558 36.5742 96.9925 36.5742ZM96.9557 32.6833C97.3921 32.6833 97.7609 32.5834 98.0621 32.3836C98.3633 32.1838 98.5922 31.8965 98.749 31.5215C98.9057 31.1466 98.9841 30.6978 98.9841 30.1754C98.9841 29.6652 98.9073 29.2149 98.7536 28.8246C98.5999 28.4343 98.3725 28.1285 98.0713 27.9072C97.7701 27.6859 97.3982 27.5753 96.9557 27.5753C96.4946 27.5753 96.1105 27.6921 95.8031 27.9256C95.4989 28.1592 95.2699 28.4727 95.1162 28.8661C94.9656 29.2595 94.8903 29.6959 94.8903 30.1754C94.8903 30.6671 94.9672 31.102 95.1208 31.48C95.2776 31.855 95.5081 32.15 95.8124 32.3652C96.1197 32.5772 96.5008 32.6833 96.9557 32.6833ZM107.061 28.276L106.084 28.5526C106.022 28.3897 105.931 28.2315 105.812 28.0778C105.695 27.921 105.535 27.792 105.332 27.6905C105.129 27.5891 104.87 27.5384 104.553 27.5384C104.12 27.5384 103.759 27.6383 103.47 27.8381C103.184 28.0348 103.041 28.2852 103.041 28.5895C103.041 28.86 103.139 29.0736 103.336 29.2303C103.533 29.387 103.84 29.5177 104.258 29.6222L105.309 29.8803C105.942 30.034 106.414 30.2691 106.724 30.5857C107.035 30.8992 107.19 31.3033 107.19 31.7981C107.19 32.2038 107.073 32.5665 106.84 32.8861C106.609 33.2057 106.286 33.4578 105.872 33.6422C105.457 33.8266 104.974 33.9188 104.424 33.9188C103.702 33.9188 103.104 33.762 102.631 33.4485C102.157 33.135 101.858 32.6771 101.732 32.0747L102.764 31.8166C102.863 32.1977 103.049 32.4835 103.322 32.674C103.599 32.8646 103.96 32.9599 104.406 32.9599C104.913 32.9599 105.315 32.8523 105.613 32.6372C105.915 32.4189 106.065 32.1577 106.065 31.8534C106.065 31.6076 105.979 31.4017 105.807 31.2357C105.635 31.0667 105.371 30.9406 105.014 30.8577L103.834 30.5811C103.185 30.4274 102.709 30.1892 102.405 29.8665C102.104 29.5407 101.953 29.1335 101.953 28.6448C101.953 28.2453 102.065 27.8918 102.29 27.5845C102.517 27.2772 102.826 27.0359 103.216 26.8607C103.61 26.6855 104.055 26.5979 104.553 26.5979C105.254 26.5979 105.804 26.7516 106.203 27.059C106.606 27.3663 106.892 27.772 107.061 28.276Z" fill="#777777"/>
<path d="M23.273 74.2622V52.4524H27.261L37.5116 67.8127V52.4524H41.4997V74.2622H37.5116L27.261 58.9331V74.2622H23.273ZM52.8627 74.6361C51.4295 74.6361 50.1313 74.3868 48.9681 73.8883C47.8049 73.369 46.8702 72.5797 46.164 71.5204C45.4577 70.4611 45.0839 69.1317 45.0423 67.5323H48.9681C48.9889 68.5917 49.3316 69.4848 49.9963 70.2118C50.6817 70.918 51.6372 71.2712 52.8627 71.2712C54.0259 71.2712 54.919 70.9492 55.5422 70.3053C56.1653 69.6614 56.4769 68.8513 56.4769 67.8751C56.4769 66.7326 56.0614 65.8706 55.2306 65.289C54.4205 64.6867 53.3716 64.3855 52.0838 64.3855H50.4636V61.114H52.1149C53.1742 61.114 54.057 60.8648 54.7632 60.3663C55.4695 59.8678 55.8226 59.1304 55.8226 58.1541C55.8226 57.3441 55.5526 56.7001 55.0125 56.2224C54.4932 55.7239 53.7662 55.4746 52.8315 55.4746C51.8137 55.4746 51.014 55.7758 50.4324 56.3782C49.8716 56.9806 49.5601 57.7179 49.4977 58.5903H45.6031C45.6862 56.5755 46.3821 54.9865 47.6907 53.8233C49.02 52.6602 50.7336 52.0786 52.8315 52.0786C54.3271 52.0786 55.5837 52.3486 56.6015 52.8886C57.6401 53.4079 58.419 54.1038 58.9383 54.9761C59.4783 55.8485 59.7483 56.8144 59.7483 57.8737C59.7483 59.0992 59.4056 60.1378 58.7202 60.9894C58.0555 61.8203 57.2246 62.3811 56.2276 62.6719C57.4531 62.9211 58.4501 63.5235 59.2187 64.479C59.9872 65.4137 60.3715 66.5976 60.3715 68.0308C60.3715 69.2356 60.0807 70.3364 59.4991 71.3335C58.9175 72.3305 58.0659 73.1302 56.9442 73.7325C55.8433 74.3349 54.4828 74.6361 52.8627 74.6361ZM63.7583 74.2622V71.3646C65.0877 70.2637 66.3755 69.1733 67.6218 68.0932C68.8888 67.0131 70.0105 65.9433 70.9867 64.884C71.9837 63.8247 72.773 62.7965 73.3546 61.7995C73.957 60.7817 74.2582 59.7951 74.2582 58.8396C74.2582 57.9464 74.0089 57.1571 73.5104 56.4717C73.0327 55.7862 72.233 55.4435 71.1113 55.4435C69.9689 55.4435 69.1069 55.8174 68.5253 56.5651C67.9437 57.3129 67.6529 58.2164 67.6529 59.2758H63.7895C63.831 57.6764 64.1841 56.347 64.8488 55.2877C65.5135 54.2076 66.3963 53.4079 67.4971 52.8886C68.598 52.3486 69.8339 52.0786 71.2048 52.0786C73.4273 52.0786 75.1513 52.6913 76.3768 53.9168C77.6231 55.1215 78.2462 56.6898 78.2462 58.6215C78.2462 59.8262 77.9658 60.9998 77.405 62.1422C76.8649 63.2846 76.1483 64.3855 75.2552 65.4448C74.362 66.5042 73.3962 67.5012 72.3576 68.4359C71.319 69.3498 70.3116 70.2014 69.3354 70.9907H78.7759V74.2622H63.7583ZM80.4051 77.8764L82.181 70.1184H86.0444L83.0222 77.8764H80.4051ZM96.9944 74.6361C95.4988 74.6361 94.1487 74.3764 92.944 73.8572C91.7392 73.3171 90.7734 72.559 90.0464 71.5827C89.3402 70.6065 88.9871 69.4744 88.9871 68.1866C88.9871 66.8573 89.3298 65.6941 90.0152 64.6971C90.7215 63.7 91.6458 62.9834 92.7882 62.5472C91.7912 62.1111 91.0019 61.4879 90.4203 60.6778C89.8387 59.847 89.5479 58.9227 89.5479 57.9049C89.5479 56.8663 89.8283 55.9108 90.3891 55.0385C90.9499 54.1453 91.7808 53.4287 92.8817 52.8886C94.0033 52.3486 95.3742 52.0786 96.9944 52.0786C98.6145 52.0786 99.975 52.3486 101.076 52.8886C102.177 53.4287 103.008 54.1453 103.568 55.0385C104.129 55.9108 104.41 56.8663 104.41 57.9049C104.41 58.9019 104.108 59.8262 103.506 60.6778C102.925 61.5087 102.146 62.1318 101.169 62.5472C102.333 62.9834 103.257 63.7 103.942 64.6971C104.628 65.6941 104.971 66.8573 104.971 68.1866C104.971 69.4744 104.617 70.6065 103.911 71.5827C103.205 72.559 102.239 73.3171 101.014 73.8572C99.8089 74.3764 98.4691 74.6361 96.9944 74.6361ZM96.9944 61.3633C98.0745 61.3633 98.9261 61.0829 99.5492 60.5221C100.172 59.9612 100.484 59.2446 100.484 58.3722C100.484 57.4168 100.172 56.669 99.5492 56.1289C98.9469 55.5889 98.0952 55.3189 96.9944 55.3189C95.8727 55.3189 95.0107 55.5889 94.4083 56.1289C93.806 56.669 93.5048 57.4168 93.5048 58.3722C93.5048 59.2654 93.806 59.9924 94.4083 60.5532C95.0315 61.0933 95.8935 61.3633 96.9944 61.3633ZM96.9944 71.3023C98.3237 71.3023 99.3311 70.9804 100.017 70.3364C100.702 69.6718 101.045 68.8409 101.045 67.8439C101.045 66.743 100.681 65.881 99.9543 65.2579C99.248 64.6348 98.2614 64.3232 96.9944 64.3232C95.7273 64.3232 94.7199 64.6348 93.9721 65.2579C93.2452 65.881 92.8817 66.743 92.8817 67.8439C92.8817 68.8409 93.2244 69.6718 93.9098 70.3364C94.6161 70.9804 95.6442 71.3023 96.9944 71.3023ZM117.835 74.6361C115.821 74.6361 114.097 74.1687 112.663 73.234C111.23 72.2786 110.119 70.9596 109.33 69.2771C108.561 67.5739 108.177 65.6006 108.177 63.3573C108.177 61.1348 108.561 59.1719 109.33 57.4687C110.119 55.7654 111.23 54.4465 112.663 53.5118C114.097 52.5563 115.821 52.0786 117.835 52.0786C119.85 52.0786 121.574 52.5563 123.007 53.5118C124.441 54.4465 125.541 55.7654 126.31 57.4687C127.099 59.1719 127.494 61.1348 127.494 63.3573C127.494 65.6006 127.099 67.5739 126.31 69.2771C125.541 70.9596 124.441 72.2786 123.007 73.234C121.574 74.1687 119.85 74.6361 117.835 74.6361ZM117.835 71.0531C119.476 71.0531 120.816 70.3676 121.855 68.9967C122.893 67.6258 123.412 65.746 123.412 63.3573C123.412 60.9686 122.893 59.0888 121.855 57.7179C120.816 56.347 119.476 55.6616 117.835 55.6616C116.174 55.6616 114.824 56.347 113.785 57.7179C112.767 59.0888 112.258 60.9686 112.258 63.3573C112.258 65.746 112.767 67.6258 113.785 68.9967C114.824 70.3676 116.174 71.0531 117.835 71.0531ZM140.984 74.2622V70.2118H130.235V67.0338L140.454 52.4524H144.972V66.7534H147.838V70.2118H144.972V74.2622H140.984ZM134.503 66.7534H141.233V56.8455L134.503 66.7534ZM149.291 77.8764L151.067 70.1184H154.93L151.908 77.8764H149.291ZM167.126 74.6361C165.112 74.6361 163.388 74.1687 161.954 73.234C160.521 72.2786 159.41 70.9596 158.621 69.2771C157.852 67.5739 157.468 65.6006 157.468 63.3573C157.468 61.1348 157.852 59.1719 158.621 57.4687C159.41 55.7654 160.521 54.4465 161.954 53.5118C163.388 52.5563 165.112 52.0786 167.126 52.0786C169.141 52.0786 170.865 52.5563 172.298 53.5118C173.732 54.4465 174.833 55.7654 175.601 57.4687C176.39 59.1719 176.785 61.1348 176.785 63.3573C176.785 65.6006 176.39 67.5739 175.601 69.2771C174.833 70.9596 173.732 72.2786 172.298 73.234C170.865 74.1687 169.141 74.6361 167.126 74.6361ZM167.126 71.0531C168.767 71.0531 170.107 70.3676 171.146 68.9967C172.184 67.6258 172.703 65.746 172.703 63.3573C172.703 60.9686 172.184 59.0888 171.146 57.7179C170.107 56.347 168.767 55.6616 167.126 55.6616C165.465 55.6616 164.115 56.347 163.076 57.7179C162.058 59.0888 161.549 60.9686 161.549 63.3573C161.549 65.746 162.058 67.6258 163.076 68.9967C164.115 70.3676 165.465 71.0531 167.126 71.0531ZM189.247 74.6361C187.232 74.6361 185.508 74.1687 184.074 73.234C182.641 72.2786 181.53 70.9596 180.741 69.2771C179.972 67.5739 179.588 65.6006 179.588 63.3573C179.588 61.1348 179.972 59.1719 180.741 57.4687C181.53 55.7654 182.641 54.4465 184.074 53.5118C185.508 52.5563 187.232 52.0786 189.247 52.0786C191.261 52.0786 192.985 52.5563 194.419 53.5118C195.852 54.4465 196.953 55.7654 197.721 57.4687C198.51 59.1719 198.905 61.1348 198.905 63.3573C198.905 65.6006 198.51 67.5739 197.721 69.2771C196.953 70.9596 195.852 72.2786 194.419 73.234C192.985 74.1687 191.261 74.6361 189.247 74.6361ZM189.247 71.0531C190.887 71.0531 192.227 70.3676 193.266 68.9967C194.304 67.6258 194.824 65.746 194.824 63.3573C194.824 60.9686 194.304 59.0888 193.266 57.7179C192.227 56.347 190.887 55.6616 189.247 55.6616C187.585 55.6616 186.235 56.347 185.196 57.7179C184.178 59.0888 183.669 60.9686 183.669 63.3573C183.669 65.746 184.178 67.6258 185.196 68.9967C186.235 70.3676 187.585 71.0531 189.247 71.0531ZM211.367 74.6361C209.352 74.6361 207.628 74.1687 206.195 73.234C204.761 72.2786 203.65 70.9596 202.861 69.2771C202.092 67.5739 201.708 65.6006 201.708 63.3573C201.708 61.1348 202.092 59.1719 202.861 57.4687C203.65 55.7654 204.761 54.4465 206.195 53.5118C207.628 52.5563 209.352 52.0786 211.367 52.0786C213.381 52.0786 215.105 52.5563 216.539 53.5118C217.972 54.4465 219.073 55.7654 219.841 57.4687C220.631 59.1719 221.025 61.1348 221.025 63.3573C221.025 65.6006 220.631 67.5739 219.841 69.2771C219.073 70.9596 217.972 72.2786 216.539 73.234C215.105 74.1687 213.381 74.6361 211.367 74.6361ZM211.367 71.0531C213.008 71.0531 214.347 70.3676 215.386 68.9967C216.424 67.6258 216.944 65.746 216.944 63.3573C216.944 60.9686 216.424 59.0888 215.386 57.7179C214.347 56.347 213.008 55.6616 211.367 55.6616C209.705 55.6616 208.355 56.347 207.316 57.7179C206.298 59.0888 205.79 60.9686 205.79 63.3573C205.79 65.746 206.298 67.6258 207.316 68.9967C208.355 70.3676 209.705 71.0531 211.367 71.0531Z" fill="#121212"/>
<path d="M21.1543 64.9775H43.6184V66.5353H21.1543V64.9775Z" fill="#121212"/>
</svg>
