<svg width="339" height="104" viewBox="0 0 339 104" fill="none" xmlns="http://www.w3.org/2000/svg">
<rect x="0.382812" width="338.181" height="103.207" rx="19.473" fill="white"/>
<path d="M258.941 46.5774H261.215V57.8406H259.167L253.816 50.0903V57.8406H251.549V46.5774H253.8L258.941 54.0317V46.5774ZM263.229 50.0436C263.229 49.2335 263.418 48.561 263.797 48.0262C264.181 47.4913 264.698 47.0915 265.347 46.8266C265.996 46.5566 266.718 46.4216 267.513 46.4216C268.354 46.4216 269.102 46.5307 269.756 46.7488C270.415 46.9668 270.935 47.2992 271.314 47.7458C271.693 48.1924 271.882 48.7584 271.882 49.4438C271.882 49.9994 271.721 50.4902 271.399 50.916C271.077 51.3366 270.553 51.6715 269.826 51.9208C270.241 52.035 270.626 52.209 270.979 52.4427C271.332 52.6763 271.615 52.9749 271.828 53.3384C272.041 53.7019 272.147 54.1381 272.147 54.647C272.147 55.1974 272.025 55.683 271.781 56.1036C271.537 56.5242 271.199 56.8773 270.768 57.1629C270.337 57.4485 269.839 57.6614 269.273 57.8016C268.707 57.9418 268.102 58.0119 267.458 58.0119C266.554 58.0067 265.783 57.8588 265.145 57.568C264.511 57.272 264.023 56.8513 263.68 56.3061C263.343 55.7609 263.169 55.1118 263.158 54.3588H265.347C265.456 54.9975 265.705 55.4597 266.095 55.7453C266.484 56.0309 266.947 56.1737 267.481 56.1737C267.949 56.1737 268.349 56.1062 268.681 55.9712C269.018 55.8362 269.276 55.6492 269.452 55.4103C269.634 55.1663 269.725 54.8885 269.725 54.5769C269.725 54.2549 269.631 53.9771 269.444 53.7435C269.263 53.5098 269.008 53.328 268.681 53.1982C268.354 53.0632 267.98 52.9905 267.559 52.9801L266.484 52.9412V51.1341L267.45 51.0795C267.855 51.064 268.208 50.9887 268.51 50.8537C268.811 50.7186 269.044 50.5395 269.211 50.3162C269.382 50.0877 269.468 49.8307 269.468 49.5451C269.468 49.2699 269.382 49.031 269.211 48.8285C269.039 48.6259 268.803 48.4676 268.502 48.3533C268.201 48.2391 267.855 48.182 267.466 48.182C267.108 48.182 266.778 48.2417 266.477 48.3611C266.175 48.4806 265.929 48.6779 265.737 48.9531C265.544 49.2231 265.433 49.5866 265.402 50.0436H263.229ZM278.575 46.5774H280.811V53.4397H282.548V55.348H280.811V57.8406H278.622L278.63 55.348H273.442V53.4786L278.575 46.5774ZM275.545 53.4397H278.63V49.3114L275.545 53.4397ZM283.728 60.0216L284.631 57.9029L283.837 57.8328V55.6284H286.135V57.568L284.569 60.0216H283.728ZM292.348 46.4216C293.688 46.4216 294.745 46.9227 295.518 47.9249C296.292 48.9219 296.679 50.3577 296.679 52.2324C296.679 54.0966 296.297 55.5272 295.534 56.5242C294.771 57.516 293.709 58.0119 292.348 58.0119C290.982 58.0119 289.915 57.516 289.147 56.5242C288.383 55.5324 288.002 54.1044 288.002 52.2401C288.002 50.9939 288.178 49.9371 288.531 49.0699C288.884 48.2027 289.386 47.5458 290.035 47.0993C290.684 46.6475 291.455 46.4216 292.348 46.4216ZM292.348 56.1503C293.018 56.1503 293.509 55.8517 293.82 55.2546C294.132 54.6522 294.288 53.6474 294.288 52.2401C294.288 50.8017 294.129 49.771 293.812 49.1478C293.496 48.5247 293.005 48.2131 292.34 48.2131C291.676 48.2131 291.18 48.5273 290.853 49.1556C290.531 49.7839 290.37 50.8121 290.37 52.2401C290.37 53.6422 290.531 54.6444 290.853 55.2468C291.175 55.8491 291.673 56.1503 292.348 56.1503ZM302.343 46.4216C303.683 46.4216 304.74 46.9227 305.513 47.9249C306.287 48.9219 306.674 50.3577 306.674 52.2324C306.674 54.0966 306.292 55.5272 305.529 56.5242C304.766 57.516 303.704 58.0119 302.343 58.0119C300.977 58.0119 299.91 57.516 299.142 56.5242C298.378 55.5324 297.997 54.1044 297.997 52.2401C297.997 50.9939 298.173 49.9371 298.526 49.0699C298.88 48.2027 299.381 47.5458 300.03 47.0993C300.679 46.6475 301.45 46.4216 302.343 46.4216ZM302.343 56.1503C303.013 56.1503 303.504 55.8517 303.815 55.2546C304.127 54.6522 304.283 53.6474 304.283 52.2401C304.283 50.8017 304.124 49.771 303.808 49.1478C303.491 48.5247 303 48.2131 302.335 48.2131C301.671 48.2131 301.175 48.5273 300.848 49.1556C300.526 49.7839 300.365 50.8121 300.365 52.2401C300.365 53.6422 300.526 54.6444 300.848 55.2468C301.17 55.8491 301.668 56.1503 302.343 56.1503ZM312.338 46.4216C313.678 46.4216 314.735 46.9227 315.509 47.9249C316.282 48.9219 316.669 50.3577 316.669 52.2324C316.669 54.0966 316.287 55.5272 315.524 56.5242C314.761 57.516 313.699 58.0119 312.338 58.0119C310.973 58.0119 309.906 57.516 309.137 56.5242C308.374 55.5324 307.992 54.1044 307.992 52.2401C307.992 50.9939 308.169 49.9371 308.522 49.0699C308.875 48.2027 309.376 47.5458 310.025 47.0993C310.674 46.6475 311.445 46.4216 312.338 46.4216ZM312.338 56.1503C313.008 56.1503 313.499 55.8517 313.81 55.2546C314.122 54.6522 314.278 53.6474 314.278 52.2401C314.278 50.8017 314.119 49.771 313.803 49.1478C313.486 48.5247 312.995 48.2131 312.331 48.2131C311.666 48.2131 311.17 48.5273 310.843 49.1556C310.521 49.7839 310.36 50.8121 310.36 52.2401C310.36 53.6422 310.521 54.6444 310.843 55.2468C311.165 55.8491 311.663 56.1503 312.338 56.1503Z" fill="#171721"/>
<path d="M250.287 53.0113H262.469V54.1018H250.287V53.0113Z" fill="#171721"/>
<circle cx="43.8733" cy="52.3328" r="13.6311" fill="#1ED760"/>
<path d="M50.0689 57.8077C49.836 58.1772 49.3392 58.2806 48.951 58.0589C45.8925 56.2852 42.0577 55.8862 37.5243 56.8617C37.0895 56.9504 36.6548 56.6991 36.5617 56.2852C36.4685 55.8714 36.7325 55.4575 37.1672 55.3688C42.1198 54.2898 46.3738 54.748 49.7894 56.7434C50.1776 56.9652 50.3018 57.4381 50.0689 57.8077ZM51.6525 54.4376C51.3575 54.8958 50.7365 55.0289 50.2552 54.7628C46.7619 52.7083 41.4367 52.117 37.3069 53.3143C36.7635 53.4621 36.2046 53.1813 36.0493 52.6787C35.8941 52.1614 36.1891 51.6293 36.7325 51.4815C41.4522 50.1216 47.3209 50.772 51.342 53.1221C51.7922 53.3882 51.9475 53.9794 51.6525 54.4376ZM51.7922 50.9198C47.6003 48.5549 40.6915 48.3331 36.6859 49.4861C36.0493 49.6782 35.3662 49.3382 35.1644 48.7174C34.9625 48.1114 35.3352 47.4611 35.9717 47.2689C40.5673 45.9387 48.2058 46.2047 53.0187 48.9244C53.5932 49.2496 53.7795 49.959 53.4379 50.5059C53.1119 51.0676 52.3666 51.2598 51.7922 50.9198Z" fill="white"/>
<circle cx="43.8728" cy="52.3328" r="22.394" stroke="#F1F5FF" stroke-width="0.6491"/>
<path d="M83.3537 49.8096C82.2874 49.8096 81.3458 49.6295 80.5288 49.2695C79.7118 48.8956 79.0679 48.3694 78.5971 47.6909C78.1263 46.9985 77.8839 46.1607 77.8701 45.1776H80.6742C80.7019 45.8561 80.9442 46.4308 81.4012 46.9016C81.872 47.3586 82.5159 47.587 83.3329 47.587C84.0391 47.587 84.6 47.4209 85.0154 47.0885C85.4308 46.7423 85.6385 46.2854 85.6385 45.7176C85.6385 45.1222 85.4516 44.6583 85.0777 44.326C84.7177 43.9936 84.233 43.7236 83.6237 43.5159C83.0144 43.3082 82.3636 43.0866 81.6712 42.8512C80.5496 42.4635 79.691 41.965 79.0956 41.3557C78.514 40.7464 78.2232 39.9363 78.2232 38.9254C78.2094 38.0669 78.4101 37.333 78.8256 36.7237C79.2548 36.1006 79.8364 35.6228 80.5703 35.2905C81.3043 34.9443 82.149 34.7712 83.1044 34.7712C84.0738 34.7712 84.9254 34.9443 85.6593 35.2905C86.4071 35.6367 86.9887 36.1213 87.4041 36.7445C87.8333 37.3676 88.0618 38.1084 88.0895 38.967H85.2439C85.23 38.4546 85.0292 38.0046 84.6415 37.6169C84.2676 37.2153 83.7414 37.0145 83.0629 37.0145C82.4813 37.0006 81.9897 37.146 81.5881 37.4507C81.2004 37.7415 81.0065 38.1708 81.0065 38.7385C81.0065 39.2232 81.1589 39.6109 81.4635 39.9017C81.7682 40.1786 82.1836 40.414 82.7098 40.6079C83.236 40.8018 83.8384 41.0095 84.5169 41.231C85.2369 41.4803 85.8947 41.7711 86.4901 42.1034C87.0856 42.4358 87.5633 42.8789 87.9234 43.4328C88.2834 43.9728 88.4634 44.6721 88.4634 45.5307C88.4634 46.2923 88.2695 46.9985 87.8818 47.6494C87.4941 48.3002 86.9194 48.8264 86.1578 49.228C85.3962 49.6157 84.4615 49.8096 83.3537 49.8096ZM90.7208 54.13V39.2578H93.0887L93.3795 40.7325C93.7119 40.2756 94.1481 39.874 94.6881 39.5278C95.242 39.1816 95.9552 39.0085 96.8276 39.0085C97.7969 39.0085 98.6623 39.2439 99.424 39.7147C100.186 40.1856 100.788 40.8295 101.231 41.6465C101.674 42.4635 101.896 43.3913 101.896 44.4298C101.896 45.4684 101.674 46.3962 101.231 47.2132C100.788 48.0163 100.186 48.6533 99.424 49.1241C98.6623 49.5811 97.7969 49.8096 96.8276 49.8096C96.0521 49.8096 95.3736 49.6642 94.792 49.3734C94.2104 49.0826 93.7396 48.6741 93.3795 48.1479V54.13H90.7208ZM96.2667 47.4832C97.1114 47.4832 97.8107 47.1993 98.3646 46.6316C98.9185 46.0638 99.1955 45.3299 99.1955 44.4298C99.1955 43.5297 98.9185 42.7889 98.3646 42.2073C97.8107 41.6257 97.1114 41.3349 96.2667 41.3349C95.4082 41.3349 94.702 41.6257 94.1481 42.2073C93.608 42.775 93.338 43.509 93.338 44.409C93.338 45.3091 93.608 46.05 94.1481 46.6316C94.702 47.1993 95.4082 47.4832 96.2667 47.4832ZM109.214 49.8096C108.217 49.8096 107.317 49.5811 106.514 49.1241C105.725 48.6671 105.095 48.0371 104.624 47.2339C104.167 46.4169 103.938 45.4753 103.938 44.409C103.938 43.3428 104.174 42.4081 104.645 41.6049C105.115 40.7879 105.746 40.1509 106.535 39.694C107.338 39.237 108.238 39.0085 109.235 39.0085C110.218 39.0085 111.105 39.237 111.894 39.694C112.697 40.1509 113.327 40.7879 113.784 41.6049C114.255 42.4081 114.49 43.3428 114.49 44.409C114.49 45.4753 114.255 46.4169 113.784 47.2339C113.327 48.0371 112.697 48.6671 111.894 49.1241C111.091 49.5811 110.198 49.8096 109.214 49.8096ZM109.214 47.504C109.907 47.504 110.509 47.2478 111.021 46.7354C111.534 46.2092 111.79 45.4338 111.79 44.409C111.79 43.3843 111.534 42.6158 111.021 42.1034C110.509 41.5772 109.914 41.3141 109.235 41.3141C108.529 41.3141 107.92 41.5772 107.407 42.1034C106.909 42.6158 106.659 43.3843 106.659 44.409C106.659 45.4338 106.909 46.2092 107.407 46.7354C107.92 47.2478 108.522 47.504 109.214 47.504ZM121.052 49.5603C119.972 49.5603 119.107 49.2972 118.456 48.771C117.805 48.2448 117.479 47.3101 117.479 45.9669V41.4803H115.714V39.2578H117.479L117.791 36.4952H120.138V39.2578H122.922V41.4803H120.138V45.9877C120.138 46.4862 120.242 46.8324 120.45 47.0262C120.671 47.2062 121.045 47.2962 121.571 47.2962H122.859V49.5603H121.052ZM126.637 37.6584C126.153 37.6584 125.751 37.513 125.433 37.2222C125.128 36.9314 124.976 36.5645 124.976 36.1213C124.976 35.6782 125.128 35.3182 125.433 35.0412C125.751 34.7504 126.153 34.605 126.637 34.605C127.122 34.605 127.517 34.7504 127.821 35.0412C128.14 35.3182 128.299 35.6782 128.299 36.1213C128.299 36.5645 128.14 36.9314 127.821 37.2222C127.517 37.513 127.122 37.6584 126.637 37.6584ZM125.308 49.5603V39.2578H127.967V49.5603H125.308ZM131.22 49.5603V41.4803H129.807V39.2578H131.22V38.0531C131.22 36.8068 131.531 35.9205 132.154 35.3943C132.791 34.8681 133.65 34.605 134.73 34.605H135.872V36.8691H135.145C134.688 36.8691 134.363 36.9591 134.169 37.1391C133.975 37.3191 133.878 37.6238 133.878 38.0531V39.2578H136.101V41.4803H133.878V49.5603H131.22ZM139.494 54.13L141.883 48.8749H141.26L137.251 39.2578H140.138L143.025 46.5069L146.037 39.2578H148.862L142.319 54.13H139.494Z" fill="#121212"/>
<path d="M77.2425 64.4981H78.2899L80.3847 68.0239H80.4732L82.568 64.4981H83.6155L80.8863 68.9385V72.0513H79.9716V68.9385L77.2425 64.4981ZM86.2543 72.1693C85.7084 72.1693 85.2376 72.0488 84.8417 71.8079C84.4483 71.5644 84.1447 71.2251 83.9308 70.7899C83.7193 70.3523 83.6136 69.8433 83.6136 69.2631C83.6136 68.6828 83.7193 68.1714 83.9308 67.7289C84.1447 67.2838 84.4422 66.9371 84.8233 66.6888C85.2069 66.438 85.6543 66.3126 86.1658 66.3126C86.4608 66.3126 86.7522 66.3618 87.0398 66.4602C87.3275 66.5585 87.5893 66.7183 87.8254 66.9396C88.0614 67.1584 88.2495 67.4486 88.3897 67.81C88.5298 68.1714 88.5999 68.6164 88.5999 69.1451V69.5139H84.2332V68.7615H87.7147C87.7147 68.4419 87.6508 68.1567 87.523 67.9059C87.3976 67.6551 87.2181 67.4572 86.9845 67.3121C86.7534 67.167 86.4805 67.0945 86.1658 67.0945C85.8191 67.0945 85.5191 67.1806 85.2659 67.3527C85.0151 67.5223 84.8221 67.7436 84.6868 68.0165C84.5516 68.2894 84.484 68.582 84.484 68.8943V69.3959C84.484 69.8237 84.5578 70.1863 84.7053 70.4838C84.8553 70.7789 85.063 71.0039 85.3286 71.1588C85.5941 71.3112 85.9027 71.3874 86.2543 71.3874C86.4829 71.3874 86.6895 71.3555 86.8739 71.2915C87.0607 71.2251 87.2218 71.1268 87.357 70.9965C87.4922 70.8637 87.5967 70.699 87.6705 70.5023L88.5114 70.7383C88.4229 71.0235 88.2741 71.2743 88.0651 71.4907C87.8561 71.7046 87.598 71.8718 87.2906 71.9923C86.9833 72.1103 86.6378 72.1693 86.2543 72.1693ZM93.9365 67.6551L93.1546 67.8764C93.1055 67.7461 93.0329 67.6194 92.937 67.4965C92.8436 67.3711 92.7158 67.2678 92.5535 67.1867C92.3912 67.1056 92.1835 67.065 91.9302 67.065C91.5835 67.065 91.2946 67.1449 91.0635 67.3047C90.8348 67.4621 90.7205 67.6625 90.7205 67.9059C90.7205 68.1222 90.7992 68.2931 90.9566 68.4185C91.1139 68.5439 91.3598 68.6484 91.6942 68.732L92.535 68.9385C93.0415 69.0615 93.419 69.2496 93.6673 69.5028C93.9156 69.7536 94.0398 70.0769 94.0398 70.4728C94.0398 70.7973 93.9464 71.0875 93.7595 71.3432C93.5751 71.5989 93.3169 71.8005 92.985 71.948C92.6531 72.0955 92.2671 72.1693 91.8269 72.1693C91.2491 72.1693 90.7709 72.0439 90.3923 71.7931C90.0136 71.5423 89.7739 71.176 89.6731 70.6941L90.4992 70.4875C90.5779 70.7924 90.7267 71.0211 90.9455 71.1735C91.1668 71.3259 91.4557 71.4022 91.8122 71.4022C92.2179 71.4022 92.54 71.3161 92.7785 71.144C93.0194 70.9694 93.1399 70.7604 93.1399 70.517C93.1399 70.3203 93.071 70.1556 92.9334 70.0228C92.7957 69.8876 92.5842 69.7868 92.299 69.7204L91.3549 69.4991C90.8361 69.3762 90.455 69.1856 90.2116 68.9275C89.9706 68.6669 89.8501 68.3411 89.8501 67.9501C89.8501 67.6305 89.9399 67.3478 90.1194 67.1019C90.3013 66.856 90.5484 66.663 90.8607 66.5229C91.1754 66.3827 91.5319 66.3126 91.9302 66.3126C92.4908 66.3126 92.9309 66.4356 93.2505 66.6814C93.5726 66.9273 93.8013 67.2519 93.9365 67.6551ZM97.8136 66.3864V67.124H94.8779V66.3864H97.8136ZM95.7335 65.0292H96.6039V70.4285C96.6039 70.6744 96.6396 70.8588 96.7109 70.9817C96.7846 71.1022 96.8781 71.1833 96.9912 71.2251C97.1067 71.2645 97.2284 71.2842 97.3563 71.2842C97.4522 71.2842 97.5308 71.2792 97.5923 71.2694C97.6538 71.2571 97.703 71.2473 97.7398 71.2399L97.9169 72.0218C97.8579 72.0439 97.7755 72.066 97.6698 72.0882C97.564 72.1127 97.43 72.125 97.2678 72.125C97.0219 72.125 96.7809 72.0722 96.5449 71.9664C96.3113 71.8607 96.1171 71.6997 95.9622 71.4833C95.8097 71.2669 95.7335 70.994 95.7335 70.6646V65.0292ZM101.437 72.1693C100.891 72.1693 100.42 72.0488 100.025 71.8079C99.6312 71.5644 99.3276 71.2251 99.1136 70.7899C98.9022 70.3523 98.7965 69.8433 98.7965 69.2631C98.7965 68.6828 98.9022 68.1714 99.1136 67.7289C99.3276 67.2838 99.6251 66.9371 100.006 66.6888C100.39 66.438 100.837 66.3126 101.349 66.3126C101.644 66.3126 101.935 66.3618 102.223 66.4602C102.51 66.5585 102.772 66.7183 103.008 66.9396C103.244 67.1584 103.432 67.4486 103.573 67.81C103.713 68.1714 103.783 68.6164 103.783 69.1451V69.5139H99.4161V68.7615H102.898C102.898 68.4419 102.834 68.1567 102.706 67.9059C102.58 67.6551 102.401 67.4572 102.167 67.3121C101.936 67.167 101.663 67.0945 101.349 67.0945C101.002 67.0945 100.702 67.1806 100.449 67.3527C100.198 67.5223 100.005 67.7436 99.8697 68.0165C99.7345 68.2894 99.6669 68.582 99.6669 68.8943V69.3959C99.6669 69.8237 99.7406 70.1863 99.8881 70.4838C100.038 70.7789 100.246 71.0039 100.511 71.1588C100.777 71.3112 101.086 71.3874 101.437 71.3874C101.666 71.3874 101.872 71.3555 102.057 71.2915C102.244 71.2251 102.405 71.1268 102.54 70.9965C102.675 70.8637 102.78 70.699 102.853 70.5023L103.694 70.7383C103.606 71.0235 103.457 71.2743 103.248 71.4907C103.039 71.7046 102.781 71.8718 102.473 71.9923C102.166 72.1103 101.821 72.1693 101.437 72.1693ZM105.107 72.0513V66.3864H105.948V67.242H106.007C106.11 66.9617 106.297 66.7343 106.567 66.5597C106.838 66.3852 107.143 66.2979 107.482 66.2979C107.546 66.2979 107.626 66.2991 107.722 66.3016C107.817 66.304 107.89 66.3077 107.939 66.3126V67.1978C107.91 67.1904 107.842 67.1793 107.736 67.1646C107.633 67.1474 107.524 67.1388 107.408 67.1388C107.133 67.1388 106.887 67.1965 106.67 67.3121C106.457 67.4252 106.287 67.5826 106.162 67.7842C106.039 67.9833 105.977 68.2108 105.977 68.4665V72.0513H105.107ZM110.938 72.1693C110.466 72.1693 110.049 72.05 109.687 71.8115C109.326 71.5706 109.043 71.2313 108.839 70.7936C108.635 70.3535 108.533 69.8335 108.533 69.2336C108.533 68.6386 108.635 68.1222 108.839 67.6846C109.043 67.2469 109.327 66.9089 109.691 66.6704C110.055 66.4319 110.475 66.3126 110.952 66.3126C111.321 66.3126 111.613 66.3741 111.826 66.497C112.043 66.6175 112.208 66.7552 112.321 66.9101C112.436 67.0625 112.526 67.1879 112.59 67.2863H112.664V64.4981H113.534V72.0513H112.693V71.1809H112.59C112.526 71.2842 112.435 71.4145 112.317 71.5718C112.199 71.7267 112.03 71.8656 111.812 71.9886C111.593 72.109 111.301 72.1693 110.938 72.1693ZM111.056 71.3874C111.405 71.3874 111.7 71.2964 111.941 71.1145C112.182 70.9301 112.365 70.6756 112.49 70.3511C112.616 70.0241 112.678 69.6466 112.678 69.2188C112.678 68.7959 112.617 68.4259 112.494 68.1087C112.371 67.7891 112.189 67.5408 111.948 67.3637C111.707 67.1842 111.41 67.0945 111.056 67.0945C110.687 67.0945 110.379 67.1892 110.134 67.3785C109.89 67.5653 109.707 67.8198 109.584 68.1419C109.464 68.4615 109.403 68.8205 109.403 69.2188C109.403 69.6221 109.465 69.9884 109.588 70.3179C109.713 70.6449 109.898 70.9055 110.141 71.0997C110.387 71.2915 110.692 71.3874 111.056 71.3874ZM116.916 72.184C116.557 72.184 116.231 72.1164 115.939 71.9812C115.646 71.8435 115.414 71.6456 115.242 71.3874C115.069 71.1268 114.983 70.8121 114.983 70.4433C114.983 70.1187 115.047 69.8556 115.175 69.654C115.303 69.45 115.474 69.2901 115.688 69.1746C115.902 69.059 116.138 68.973 116.396 68.9164C116.657 68.8574 116.918 68.8107 117.181 68.7763C117.526 68.732 117.805 68.6988 118.019 68.6767C118.235 68.6521 118.392 68.6115 118.491 68.555C118.592 68.4984 118.642 68.4001 118.642 68.2599V68.2304C118.642 67.8665 118.542 67.5838 118.343 67.3822C118.147 67.1806 117.848 67.0798 117.447 67.0798C117.032 67.0798 116.706 67.1707 116.47 67.3527C116.234 67.5346 116.068 67.7289 115.972 67.9354L115.146 67.6403C115.293 67.2961 115.49 67.0281 115.736 66.8363C115.984 66.6421 116.255 66.5069 116.547 66.4307C116.842 66.352 117.132 66.3126 117.418 66.3126C117.599 66.3126 117.808 66.3348 118.045 66.379C118.283 66.4208 118.513 66.5081 118.734 66.6409C118.958 66.7736 119.144 66.974 119.291 67.242C119.439 67.51 119.512 67.869 119.512 68.3189V72.0513H118.642V71.2842H118.598C118.539 71.4071 118.44 71.5386 118.303 71.6788C118.165 71.8189 117.982 71.9382 117.753 72.0365C117.524 72.1349 117.245 72.184 116.916 72.184ZM117.049 71.4022C117.393 71.4022 117.683 71.3346 117.919 71.1993C118.158 71.0641 118.337 70.8895 118.458 70.6756C118.581 70.4617 118.642 70.2367 118.642 70.0007V69.2041C118.605 69.2483 118.524 69.2889 118.399 69.3258C118.276 69.3602 118.133 69.3909 117.971 69.418C117.811 69.4426 117.655 69.4647 117.502 69.4844C117.352 69.5016 117.231 69.5163 117.137 69.5286C116.911 69.5581 116.7 69.6061 116.503 69.6725C116.309 69.7364 116.151 69.8335 116.031 69.9638C115.913 70.0917 115.854 70.2662 115.854 70.4875C115.854 70.7899 115.966 71.0186 116.189 71.1735C116.416 71.3259 116.702 71.4022 117.049 71.4022ZM121.459 74.1756C121.311 74.1756 121.18 74.1633 121.064 74.1387C120.949 74.1166 120.869 74.0945 120.824 74.0723L121.046 73.3052C121.257 73.3593 121.444 73.379 121.606 73.3642C121.769 73.3495 121.912 73.2769 122.038 73.1466C122.166 73.0188 122.282 72.811 122.388 72.5233L122.55 72.0808L120.456 66.3864H121.4L122.963 70.9006H123.022L124.586 66.3864H125.53L123.126 72.8774C123.018 73.17 122.884 73.4122 122.724 73.6039C122.564 73.7982 122.378 73.942 122.167 74.0355C121.958 74.1289 121.722 74.1756 121.459 74.1756ZM127.622 71.0186L127.563 71.4169C127.522 71.6972 127.458 71.9972 127.372 72.3168C127.288 72.6364 127.201 72.9376 127.11 73.2204C127.019 73.5031 126.944 73.7281 126.885 73.8953H126.221C126.253 73.7379 126.295 73.5302 126.346 73.272C126.398 73.0139 126.45 72.725 126.501 72.4053C126.555 72.0882 126.6 71.7636 126.634 71.4317L126.678 71.0186H127.622ZM134.502 72.1545C134.069 72.1545 133.679 72.0685 133.332 71.8964C132.986 71.7243 132.708 71.4882 132.499 71.1883C132.29 70.8883 132.176 70.5465 132.156 70.163H133.041C133.076 70.5047 133.23 70.7875 133.506 71.0112C133.784 71.2325 134.116 71.3432 134.502 71.3432C134.811 71.3432 135.087 71.2706 135.328 71.1256C135.571 70.9805 135.762 70.7813 135.899 70.5281C136.04 70.2724 136.11 69.9835 136.11 69.6614C136.11 69.3319 136.037 69.0381 135.892 68.78C135.749 68.5193 135.553 68.314 135.302 68.164C135.051 68.0141 134.765 67.9378 134.443 67.9354C134.211 67.9329 133.974 67.9686 133.731 68.0423C133.487 68.1136 133.287 68.2058 133.13 68.3189L132.274 68.2157L132.731 64.4981H136.655V65.3095H133.498L133.233 67.5371H133.277C133.432 67.4141 133.626 67.3121 133.86 67.231C134.093 67.1498 134.337 67.1093 134.59 67.1093C135.052 67.1093 135.464 67.2199 135.826 67.4412C136.19 67.66 136.475 67.96 136.681 68.3411C136.89 68.7222 136.995 69.1574 136.995 69.6466C136.995 70.1286 136.887 70.5588 136.67 70.9375C136.456 71.3137 136.161 71.6112 135.785 71.83C135.409 72.0464 134.981 72.1545 134.502 72.1545ZM139.109 71.085C138.927 71.085 138.771 71.0198 138.641 70.8895C138.51 70.7592 138.445 70.6031 138.445 70.4211C138.445 70.2392 138.51 70.0831 138.641 69.9528C138.771 69.8224 138.927 69.7573 139.109 69.7573C139.291 69.7573 139.447 69.8224 139.577 69.9528C139.708 70.0831 139.773 70.2392 139.773 70.4211C139.773 70.5416 139.742 70.6523 139.681 70.7531C139.622 70.8539 139.542 70.935 139.441 70.9965C139.342 71.0555 139.232 71.085 139.109 71.085ZM139.109 67.2642C138.927 67.2642 138.771 67.199 138.641 67.0687C138.51 66.9384 138.445 66.7822 138.445 66.6003C138.445 66.4184 138.51 66.2622 138.641 66.1319C138.771 66.0016 138.927 65.9364 139.109 65.9364C139.291 65.9364 139.447 66.0016 139.577 66.1319C139.708 66.2622 139.773 66.4184 139.773 66.6003C139.773 66.7208 139.742 66.8314 139.681 66.9322C139.622 67.033 139.542 67.1142 139.441 67.1756C139.342 67.2347 139.232 67.2642 139.109 67.2642ZM143.872 72.1545C143.385 72.1545 142.951 72.0709 142.57 71.9037C142.192 71.7366 141.89 71.5042 141.667 71.2067C141.445 70.9067 141.325 70.5588 141.305 70.163H142.235C142.254 70.4064 142.338 70.6166 142.485 70.7936C142.633 70.9682 142.826 71.1034 143.064 71.1993C143.303 71.2952 143.567 71.3432 143.857 71.3432C144.182 71.3432 144.47 71.2866 144.72 71.1735C144.971 71.0604 145.168 70.9031 145.31 70.7014C145.453 70.4998 145.524 70.2662 145.524 70.0007C145.524 69.7229 145.455 69.4782 145.318 69.2668C145.18 69.0529 144.978 68.8857 144.713 68.7652C144.447 68.6447 144.123 68.5845 143.739 68.5845H143.134V67.7731H143.739C144.039 67.7731 144.302 67.719 144.529 67.6108C144.757 67.5027 144.935 67.3502 145.063 67.1535C145.194 66.9568 145.259 66.7257 145.259 66.4602C145.259 66.2044 145.202 65.9819 145.089 65.7926C144.976 65.6033 144.816 65.4558 144.61 65.35C144.406 65.2443 144.165 65.1915 143.887 65.1915C143.626 65.1915 143.38 65.2394 143.149 65.3353C142.921 65.4287 142.734 65.5652 142.589 65.7447C142.444 65.9217 142.365 66.1356 142.353 66.3864H141.467C141.482 65.9905 141.601 65.6439 141.825 65.3464C142.049 65.0464 142.342 64.8128 142.703 64.6456C143.067 64.4784 143.466 64.3948 143.902 64.3948C144.369 64.3948 144.769 64.4895 145.104 64.6788C145.438 64.8657 145.695 65.1128 145.875 65.4201C146.054 65.7275 146.144 66.0594 146.144 66.4159C146.144 66.8413 146.032 67.2039 145.808 67.5039C145.587 67.8038 145.286 68.0116 144.905 68.1272V68.1862C145.382 68.2649 145.754 68.4677 146.022 68.7947C146.29 69.1193 146.424 69.5213 146.424 70.0007C146.424 70.4113 146.312 70.7801 146.089 71.1071C145.867 71.4317 145.565 71.6874 145.181 71.8742C144.798 72.0611 144.361 72.1545 143.872 72.1545ZM150.396 72.1545C149.841 72.1545 149.367 72.0033 148.976 71.7009C148.585 71.396 148.287 70.9547 148.08 70.3769C147.874 69.7966 147.77 69.0959 147.77 68.2747C147.77 67.4584 147.874 66.7613 148.08 66.1836C148.289 65.6033 148.589 65.1607 148.98 64.8558C149.373 64.5485 149.845 64.3948 150.396 64.3948C150.947 64.3948 151.418 64.5485 151.809 64.8558C152.202 65.1607 152.502 65.6033 152.709 66.1836C152.918 66.7613 153.022 67.4584 153.022 68.2747C153.022 69.0959 152.919 69.7966 152.712 70.3769C152.506 70.9547 152.207 71.396 151.816 71.7009C151.425 72.0033 150.952 72.1545 150.396 72.1545ZM150.396 71.3432C150.947 71.3432 151.375 71.0776 151.68 70.5465C151.985 70.0155 152.137 69.2582 152.137 68.2747C152.137 67.6207 152.067 67.0638 151.927 66.604C151.789 66.1442 151.59 65.7938 151.329 65.5529C151.071 65.3119 150.76 65.1915 150.396 65.1915C149.85 65.1915 149.424 65.4607 149.116 65.9991C148.809 66.5351 148.655 67.2937 148.655 68.2747C148.655 68.9287 148.724 69.4844 148.862 69.9417C149 70.399 149.198 70.7469 149.456 70.9854C149.716 71.2239 150.03 71.3432 150.396 71.3432ZM157.477 72.0513V64.4981H160.029C160.622 64.4981 161.106 64.6051 161.483 64.819C161.861 65.0304 162.142 65.3169 162.323 65.6783C162.505 66.0397 162.596 66.4429 162.596 66.888C162.596 67.333 162.505 67.7375 162.323 68.1013C162.144 68.4652 161.866 68.7554 161.49 68.9717C161.114 69.1856 160.632 69.2926 160.044 69.2926H158.215V68.4812H160.015C160.42 68.4812 160.746 68.4111 160.992 68.271C161.238 68.1309 161.416 67.9415 161.527 67.703C161.64 67.4621 161.696 67.1904 161.696 66.888C161.696 66.5856 161.64 66.3151 161.527 66.0766C161.416 65.8381 161.237 65.6512 160.988 65.516C160.74 65.3783 160.411 65.3095 160 65.3095H158.392V72.0513H157.477ZM164.07 64.4981H165.161L167.728 70.7678H167.817L170.384 64.4981H171.475V72.0513H170.62V66.3126H170.546L168.186 72.0513H167.36L164.999 66.3126H164.925V72.0513H164.07V64.4981Z" fill="#777777"/>
</svg>
